<?plantuml 1.2026.1?><svg xmlns="http://www.w3.org/2000/svg" xmlns:xlink="http://www.w3.org/1999/xlink" contentStyleType="text/css" data-diagram-type="SEQUENCE" preserveAspectRatio="none" version="1.1" viewBox="0 0 2191 2660" zoomAndPan="magnify"><title>NexisOS Package Install - Updated High-Level Flow</title><defs><linearGradient id="g1bp98nwb6svrr0" x1="50%" x2="50%" y1="0%" y2="100%"><stop offset="0%" stop-color="#59B6EC"/><stop offset="100%" stop-color="#2FA4E7"/></linearGradient><linearGradient id="g1bp98nwb6svrr1" x1="50%" x2="50%" y1="0%" y2="100%"><stop offset="0%" stop-color="#FFFFFF"/><stop offset="100%" stop-color="#F8F9FA"/></linearGradient><linearGradient id="g1bp98nwb6svrr2" x1="50%" x2="50%" y1="0%" y2="100%"><stop offset="0%" stop-color="#35638F"/><stop offset="100%" stop-color="#033C73"/></linearGradient></defs><g><rect fill="none" height="48.2361" rx="4.1667" ry="4.1667" style="stroke:#BABDBF;stroke-width:1.0417;" width="625.8219" x="781.8171" y="20.8333"/><text fill="#2FA4E7" font-family="'Verdana'" font-size="20.8333" font-weight="bold" lengthAdjust="spacing" textLength="602.9053" x="793.2755" y="53.2369">NexisOS Package Install - Updated High-Level Flow</text><rect fill="none" height="508.0831" rx="4.1667" ry="4.1667" style="stroke:#59B6EC;stroke-width:1.0417;" width="1451.3265" x="502.182" y="566.2109"/><rect fill="none" height="160.3333" rx="4.1667" ry="4.1667" style="stroke:#59B6EC;stroke-width:1.0417;" width="921.4325" x="512.5987" y="691.5609"/><rect fill="none" height="120.1416" rx="4.1667" ry="4.1667" style="stroke:#59B6EC;stroke-width:1.0417;" width="748.3775" x="1194.7144" y="946.8608"/><rect fill="none" height="171.7916" rx="4.1667" ry="4.1667" style="stroke:#59B6EC;stroke-width:1.0417;" width="748.3775" x="1194.7144" y="1143.6523"/><rect fill="none" height="186.9832" rx="4.1667" ry="4.1667" style="stroke:#59B6EC;stroke-width:1.0417;" width="817.2801" x="1194.7144" y="1330.0273"/><g class="participant-lifeline" data-entity-uid="part1" data-qualified-name="User" id="part1-lifeline"><g><title>User</title><rect fill="#000000" fill-opacity="0.00000" height="2392.5822" width="8.3333" x="34.0129" y="169.6777"/><line style="stroke:#BABDBF;stroke-width:1.0417;stroke-dasharray:5.2083,5.2083;" x1="37.5" x2="37.5" y1="169.6777" y2="2562.2599"/></g></g><g class="participant-lifeline" data-entity-uid="part2" data-qualified-name="CLI" id="part2-lifeline"><g><title>CLI . API</title><rect fill="#000000" fill-opacity="0.00000" height="2392.5822" width="8.3333" x="203.5909" y="169.6777"/><line style="stroke:#BABDBF;stroke-width:1.0417;stroke-dasharray:5.2083,5.2083;" x1="207.372" x2="207.372" y1="169.6777" y2="2562.2599"/></g></g><g class="participant-lifeline" data-entity-uid="part3" data-qualified-name="Parser" id="part3-lifeline"><g><title>TOML Parser</title><rect fill="#000000" fill-opacity="0.00000" height="2392.5822" width="8.3333" x="405.1626" y="169.6777"/><line style="stroke:#BABDBF;stroke-width:1.0417;stroke-dasharray:5.2083,5.2083;" x1="409.1848" x2="409.1848" y1="169.6777" y2="2562.2599"/></g></g><g class="participant-lifeline" data-entity-uid="part4" data-qualified-name="Resolver" id="part4-lifeline"><g><title>Dependency Resolver</title><rect fill="#000000" fill-opacity="0.00000" height="2392.5822" width="8.3333" x="645.403" y="169.6777"/><line style="stroke:#BABDBF;stroke-width:1.0417;stroke-dasharray:5.2083,5.2083;" x1="649.057" x2="649.057" y1="169.6777" y2="2562.2599"/></g></g><g class="participant-lifeline" data-entity-uid="part5" data-qualified-name="Hasher" id="part5-lifeline"><g><title>Hash Engine</title><rect fill="#000000" fill-opacity="0.00000" height="2392.5822" width="8.3333" x="964.859" y="169.6777"/><line style="stroke:#BABDBF;stroke-width:1.0417;stroke-dasharray:5.2083,5.2083;" x1="968.514" x2="968.514" y1="169.6777" y2="2562.2599"/></g></g><g class="participant-lifeline" data-entity-uid="part6" data-qualified-name="Store" id="part6-lifeline"><g><title>Content Store</title><rect fill="#000000" fill-opacity="0.00000" height="2392.5822" width="8.3333" x="1310.2061" y="169.6777"/><line style="stroke:#BABDBF;stroke-width:1.0417;stroke-dasharray:5.2083,5.2083;" x1="1313.4644" x2="1313.4644" y1="169.6777" y2="2562.2599"/></g></g><g class="participant-lifeline" data-entity-uid="part7" data-qualified-name="Mutable" id="part7-lifeline"><g><title>Mutable Env Manager</title><rect fill="#000000" fill-opacity="0.00000" height="2392.5822" width="8.3333" x="1570.3135" y="169.6777"/><line style="stroke:#BABDBF;stroke-width:1.0417;stroke-dasharray:5.2083,5.2083;" x1="1574.4029" x2="1574.4029" y1="169.6777" y2="2562.2599"/></g></g><g class="participant-lifeline" data-entity-uid="part8" data-qualified-name="Builder" id="part8-lifeline"><g><title>Generation Builder</title><rect fill="#000000" fill-opacity="0.00000" height="2392.5822" width="8.3333" x="1815.5955" y="169.6777"/><line style="stroke:#BABDBF;stroke-width:1.0417;stroke-dasharray:5.2083,5.2083;" x1="1819.3492" x2="1819.3492" y1="169.6777" y2="2562.2599"/></g></g><g class="participant-lifeline" data-entity-uid="part9" data-qualified-name="Activate" id="part9-lifeline"><g><title>Activation Manager</title><rect fill="#000000" fill-opacity="0.00000" height="2392.5822" width="8.3333" x="2056.2429" y="169.6777"/><line style="stroke:#BABDBF;stroke-width:1.0417;stroke-dasharray:5.2083,5.2083;" x1="2059.4879" x2="2059.4879" y1="169.6777" y2="2562.2599"/></g></g><g class="participant participant-head" data-entity-uid="part1" data-qualified-name="User" id="part1-head"><text fill="#343A40" font-family="'Verdana'" font-size="12.5" lengthAdjust="spacing" textLength="28.4424" x="20.8333" y="161.8449">User</text><ellipse cx="38.1795" cy="89.9028" fill="url(#g1bp98nwb6svrr0)" rx="8.3333" ry="8.3333" style="stroke:#2FA4E7;stroke-width:1.0417;"/><path d="M38.1795,98.2361 L38.1795,126.3611 M24.6379,106.5694 L51.7212,106.5694 M38.1795,126.3611 L24.6379,141.9861 M38.1795,126.3611 L51.7212,141.9861" fill="none" style="stroke:#2FA4E7;stroke-width:1.0417;"/></g><g class="participant participant-tail" data-entity-uid="part1" data-qualified-name="User" id="part1-tail"><text fill="#343A40" font-family="'Verdana'" font-size="12.5" lengthAdjust="spacing" textLength="28.4424" x="20.8333" y="2578.9937">User</text><ellipse cx="38.1795" cy="2596.2016" fill="url(#g1bp98nwb6svrr0)" rx="8.3333" ry="8.3333" style="stroke:#2FA4E7;stroke-width:1.0417;"/><path d="M38.1795,2604.5349 L38.1795,2632.6599 M24.6379,2612.8682 L51.7212,2612.8682 M38.1795,2632.6599 L24.6379,2648.2849 M38.1795,2632.6599 L51.7212,2648.2849" fill="none" style="stroke:#2FA4E7;stroke-width:1.0417;"/></g><g class="participant participant-head" data-entity-uid="part2" data-qualified-name="CLI" id="part2-head"><rect fill="url(#g1bp98nwb6svrr0)" height="55.3833" rx="4.1667" ry="4.1667" style="stroke:#2FA4E7;stroke-width:1.0417;" width="92.4377" x="161.5387" y="113.2528"/><text fill="#FFFFFF" font-family="'Verdana'" font-size="12.5" lengthAdjust="spacing" textLength="56.7566" x="179.3793" y="138.3199">CLI / API</text><text fill="#FFFFFF" font-family="'Verdana'" font-size="12.5" lengthAdjust="spacing" textLength="67.4377" x="174.0387" y="153.5116">(Frontend)</text></g><g class="participant participant-tail" data-entity-uid="part2" data-qualified-name="CLI" id="part2-tail"><rect fill="url(#g1bp98nwb6svrr0)" height="55.3833" rx="4.1667" ry="4.1667" style="stroke:#2FA4E7;stroke-width:1.0417;" width="92.4377" x="161.5387" y="2561.2183"/><text fill="#FFFFFF" font-family="'Verdana'" font-size="12.5" lengthAdjust="spacing" textLength="56.7566" x="179.3793" y="2586.2854">CLI / API</text><text fill="#FFFFFF" font-family="'Verdana'" font-size="12.5" lengthAdjust="spacing" textLength="67.4377" x="174.0387" y="2601.4771">(Frontend)</text></g><g class="participant participant-head" data-entity-uid="part3" data-qualified-name="Parser" id="part3-head"><rect fill="url(#g1bp98nwb6svrr0)" height="55.3833" rx="4.1667" ry="4.1667" style="stroke:#2FA4E7;stroke-width:1.0417;" width="123.2056" x="347.7264" y="113.2528"/><text fill="#FFFFFF" font-family="'Verdana'" font-size="12.5" lengthAdjust="spacing" textLength="79.1016" x="369.7784" y="138.3199">TOML Parser</text><text fill="#FFFFFF" font-family="'Verdana'" font-size="12.5" lengthAdjust="spacing" textLength="98.2056" x="360.2264" y="153.5116">(Config Loader)</text></g><g class="participant participant-tail" data-entity-uid="part3" data-qualified-name="Parser" id="part3-tail"><rect fill="url(#g1bp98nwb6svrr0)" height="55.3833" rx="4.1667" ry="4.1667" style="stroke:#2FA4E7;stroke-width:1.0417;" width="123.2056" x="347.7264" y="2561.2183"/><text fill="#FFFFFF" font-family="'Verdana'" font-size="12.5" lengthAdjust="spacing" textLength="79.1016" x="369.7784" y="2586.2854">TOML Parser</text><text fill="#FFFFFF" font-family="'Verdana'" font-size="12.5" lengthAdjust="spacing" textLength="98.2056" x="360.2264" y="2601.4771">(Config Loader)</text></g><g class="participant participant-head" data-entity-uid="part4" data-qualified-name="Resolver" id="part4-head"><rect fill="url(#g1bp98nwb6svrr0)" height="55.3833" rx="4.1667" ry="4.1667" style="stroke:#2FA4E7;stroke-width:1.0417;" width="169.7754" x="564.682" y="113.2528"/><text fill="#FFFFFF" font-family="'Verdana'" font-size="12.5" lengthAdjust="spacing" textLength="135.5164" x="581.8115" y="138.3199">Dependency Resolver</text><text fill="#FFFFFF" font-family="'Verdana'" font-size="12.5" lengthAdjust="spacing" textLength="144.7754" x="577.182" y="153.5116">(Graph + DAG Builder)</text></g><g class="participant participant-tail" data-entity-uid="part4" data-qualified-name="Resolver" id="part4-tail"><rect fill="url(#g1bp98nwb6svrr0)" height="55.3833" rx="4.1667" ry="4.1667" style="stroke:#2FA4E7;stroke-width:1.0417;" width="169.7754" x="564.682" y="2561.2183"/><text fill="#FFFFFF" font-family="'Verdana'" font-size="12.5" lengthAdjust="spacing" textLength="135.5164" x="581.8115" y="2586.2854">Dependency Resolver</text><text fill="#FFFFFF" font-family="'Verdana'" font-size="12.5" lengthAdjust="spacing" textLength="144.7754" x="577.182" y="2601.4771">(Graph + DAG Builder)</text></g><g class="participant participant-head" data-entity-uid="part5" data-qualified-name="Hasher" id="part5-head"><rect fill="url(#g1bp98nwb6svrr0)" height="55.3833" rx="4.1667" ry="4.1667" style="stroke:#2FA4E7;stroke-width:1.0417;" width="103.1067" x="917.4723" y="113.2528"/><text fill="#FFFFFF" font-family="'Verdana'" font-size="12.5" lengthAdjust="spacing" textLength="78.1067" x="929.9723" y="138.3199">Hash Engine</text><text fill="#FFFFFF" font-family="'Verdana'" font-size="12.5" lengthAdjust="spacing" textLength="59.9365" x="939.0574" y="153.5116">(BLAKE3)</text></g><g class="participant participant-tail" data-entity-uid="part5" data-qualified-name="Hasher" id="part5-tail"><rect fill="url(#g1bp98nwb6svrr0)" height="55.3833" rx="4.1667" ry="4.1667" style="stroke:#2FA4E7;stroke-width:1.0417;" width="103.1067" x="917.4723" y="2561.2183"/><text fill="#FFFFFF" font-family="'Verdana'" font-size="12.5" lengthAdjust="spacing" textLength="78.1067" x="929.9723" y="2586.2854">Hash Engine</text><text fill="#FFFFFF" font-family="'Verdana'" font-size="12.5" lengthAdjust="spacing" textLength="59.9365" x="939.0574" y="2601.4771">(BLAKE3)</text></g><g class="participant participant-head" data-entity-uid="part6" data-qualified-name="Store" id="part6-head"><rect fill="url(#g1bp98nwb6svrr0)" height="55.3833" rx="4.1667" ry="4.1667" style="stroke:#2FA4E7;stroke-width:1.0417;" width="135.1501" x="1246.7977" y="113.2528"/><text fill="#FFFFFF" font-family="'Verdana'" font-size="12.5" lengthAdjust="spacing" textLength="87.6648" x="1270.5404" y="138.3199">Content Store</text><text fill="#FFFFFF" font-family="'Verdana'" font-size="12.5" lengthAdjust="spacing" textLength="110.1501" x="1259.2977" y="153.5116">(Immutable CAS)</text></g><g class="participant participant-tail" data-entity-uid="part6" data-qualified-name="Store" id="part6-tail"><rect fill="url(#g1bp98nwb6svrr0)" height="55.3833" rx="4.1667" ry="4.1667" style="stroke:#2FA4E7;stroke-width:1.0417;" width="135.1501" x="1246.7977" y="2561.2183"/><text fill="#FFFFFF" font-family="'Verdana'" font-size="12.5" lengthAdjust="spacing" textLength="87.6648" x="1270.5404" y="2586.2854">Content Store</text><text fill="#FFFFFF" font-family="'Verdana'" font-size="12.5" lengthAdjust="spacing" textLength="110.1501" x="1259.2977" y="2601.4771">(Immutable CAS)</text></g><g class="participant participant-head" data-entity-uid="part7" data-qualified-name="Mutable" id="part7-head"><rect fill="url(#g1bp98nwb6svrr0)" height="55.3833" rx="4.1667" ry="4.1667" style="stroke:#2FA4E7;stroke-width:1.0417;" width="160.5713" x="1494.1945" y="113.2528"/><text fill="#FFFFFF" font-family="'Verdana'" font-size="12.5" lengthAdjust="spacing" textLength="135.5713" x="1506.6945" y="138.3199">Mutable Env Manager</text><text fill="#FFFFFF" font-family="'Verdana'" font-size="12.5" lengthAdjust="spacing" textLength="96.167" x="1526.3967" y="153.5116">(Overlays/VFS)</text></g><g class="participant participant-tail" data-entity-uid="part7" data-qualified-name="Mutable" id="part7-tail"><rect fill="url(#g1bp98nwb6svrr0)" height="55.3833" rx="4.1667" ry="4.1667" style="stroke:#2FA4E7;stroke-width:1.0417;" width="160.5713" x="1494.1945" y="2561.2183"/><text fill="#FFFFFF" font-family="'Verdana'" font-size="12.5" lengthAdjust="spacing" textLength="135.5713" x="1506.6945" y="2586.2854">Mutable Env Manager</text><text fill="#FFFFFF" font-family="'Verdana'" font-size="12.5" lengthAdjust="spacing" textLength="96.167" x="1526.3967" y="2601.4771">(Overlays/VFS)</text></g><g class="participant participant-head" data-entity-uid="part8" data-qualified-name="Builder" id="part8-head"><rect fill="url(#g1bp98nwb6svrr0)" height="55.3833" rx="4.1667" ry="4.1667" style="stroke:#2FA4E7;stroke-width:1.0417;" width="142.4927" x="1748.5158" y="113.2528"/><text fill="#FFFFFF" font-family="'Verdana'" font-size="12.5" lengthAdjust="spacing" textLength="117.4927" x="1761.0158" y="138.3199">Generation Builder</text><text fill="#FFFFFF" font-family="'Verdana'" font-size="12.5" lengthAdjust="spacing" textLength="99.7498" x="1769.8873" y="153.5116">(Projected FHS)</text></g><g class="participant participant-tail" data-entity-uid="part8" data-qualified-name="Builder" id="part8-tail"><rect fill="url(#g1bp98nwb6svrr0)" height="55.3833" rx="4.1667" ry="4.1667" style="stroke:#2FA4E7;stroke-width:1.0417;" width="142.4927" x="1748.5158" y="2561.2183"/><text fill="#FFFFFF" font-family="'Verdana'" font-size="12.5" lengthAdjust="spacing" textLength="117.4927" x="1761.0158" y="2586.2854">Generation Builder</text><text fill="#FFFFFF" font-family="'Verdana'" font-size="12.5" lengthAdjust="spacing" textLength="99.7498" x="1769.8873" y="2601.4771">(Projected FHS)</text></g><g class="participant participant-head" data-entity-uid="part9" data-qualified-name="Activate" id="part9-head"><rect fill="url(#g1bp98nwb6svrr0)" height="55.3833" rx="4.1667" ry="4.1667" style="stroke:#2FA4E7;stroke-width:1.0417;" width="145.5933" x="1987.6129" y="113.2528"/><text fill="#FFFFFF" font-family="'Verdana'" font-size="12.5" lengthAdjust="spacing" textLength="120.5933" x="2000.1129" y="138.3199">Activation Manager</text><text fill="#FFFFFF" font-family="'Verdana'" font-size="12.5" lengthAdjust="spacing" textLength="116.6443" x="2002.0874" y="153.5116">(/system Symlink)</text></g><g class="participant participant-tail" data-entity-uid="part9" data-qualified-name="Activate" id="part9-tail"><rect fill="url(#g1bp98nwb6svrr0)" height="55.3833" rx="4.1667" ry="4.1667" style="stroke:#2FA4E7;stroke-width:1.0417;" width="145.5933" x="1987.6129" y="2561.2183"/><text fill="#FFFFFF" font-family="'Verdana'" font-size="12.5" lengthAdjust="spacing" textLength="120.5933" x="2000.1129" y="2586.2854">Activation Manager</text><text fill="#FFFFFF" font-family="'Verdana'" font-size="12.5" lengthAdjust="spacing" textLength="116.6443" x="2002.0874" y="2601.4771">(/system Symlink)</text></g><rect fill="url(#g1bp98nwb6svrr1)" height="3.125" rx="4.1667" ry="4.1667" style="stroke:url(#g1bp98nwb6svrr1);stroke-width:1.0417;" width="2169.6645" x="10.4167" y="206.4402"/><line style="stroke:#868E96;stroke-width:1.0417;" x1="10.4167" x2="2180.0812" y1="206.4402" y2="206.4402"/><line style="stroke:#868E96;stroke-width:1.0417;" x1="10.4167" x2="2180.0812" y1="209.5652" y2="209.5652"/><rect fill="url(#g1bp98nwb6svrr1)" height="33.9417" rx="4.1667" ry="4.1667" style="stroke:#868E96;stroke-width:2.0833;" width="122.76" x="1033.8689" y="190.5111"/><text fill="#343A40" font-family="'Verdana'" font-size="12.5" font-weight="bold" lengthAdjust="spacing" textLength="93.4875" x="1045.3273" y="212.4532">User Request</text><g class="message" data-entity-1="part1" data-entity-2="part2" id="msg1"><polygon fill="#2FA4E7" points="195.2576,262.561,205.6742,266.7277,195.2576,270.8944,199.4242,266.7277" style="stroke:#2FA4E7;stroke-width:1.0417;"/><line style="stroke:#2FA4E7;stroke-width:3.125;" x1="38.1795" x2="201.5076" y1="266.7277" y2="266.7277"/><text fill="#343A40" font-family="'Verdana'" font-size="12.5" lengthAdjust="spacing" textLength="102.0325" x="50.6795" y="256.8115">install packageA</text></g><g class="message" data-entity-1="part2" data-entity-2="part3" id="msg2"><polygon fill="#2FA4E7" points="396.8292,302.7527,407.2459,306.9194,396.8292,311.086,400.9959,306.9194" style="stroke:#2FA4E7;stroke-width:1.0417;"/><line style="stroke:#2FA4E7;stroke-width:3.125;" x1="207.7576" x2="403.0792" y1="306.9194" y2="306.9194"/><text fill="#343A40" font-family="'Verdana'" font-size="12.5" lengthAdjust="spacing" textLength="107.7576" x="220.2576" y="297.0032">load TOML config</text></g><rect fill="url(#g1bp98nwb6svrr1)" height="3.125" rx="4.1667" ry="4.1667" style="stroke:url(#g1bp98nwb6svrr1);stroke-width:1.0417;" width="2169.6645" x="10.4167" y="341.5985"/><line style="stroke:#868E96;stroke-width:1.0417;" x1="10.4167" x2="2180.0812" y1="341.5985" y2="341.5985"/><line style="stroke:#868E96;stroke-width:1.0417;" x1="10.4167" x2="2180.0812" y1="344.7235" y2="344.7235"/><rect fill="url(#g1bp98nwb6svrr1)" height="33.9417" rx="4.1667" ry="4.1667" style="stroke:#868E96;stroke-width:2.0833;" width="194.3115" x="998.0932" y="325.6694"/><text fill="#343A40" font-family="'Verdana'" font-size="12.5" font-weight="bold" lengthAdjust="spacing" textLength="165.0391" x="1009.5515" y="347.6115">Dependency Resolution</text><g class="message" data-entity-1="part3" data-entity-2="part4" id="msg3"><polygon fill="#2FA4E7" points="637.0697,397.7193,647.4864,401.886,637.0697,406.0527,641.2364,401.886" style="stroke:#2FA4E7;stroke-width:1.0417;"/><line style="stroke:#2FA4E7;stroke-width:3.125;" x1="409.3292" x2="643.3197" y1="401.886" y2="401.886"/><text fill="#343A40" font-family="'Verdana'" font-size="12.5" lengthAdjust="spacing" textLength="188.8367" x="421.8292" y="391.9698">parsed config + dependencies</text></g><g class="message" data-entity-1="part4" data-entity-2="part4" id="msg4"><line style="stroke:#2FA4E7;stroke-width:3.125;" x1="649.5697" x2="693.3197" y1="442.0776" y2="442.0776"/><line style="stroke:#2FA4E7;stroke-width:3.125;" x1="693.3197" x2="693.3197" y1="442.0776" y2="455.6193"/><line style="stroke:#2FA4E7;stroke-width:3.125;" x1="650.6114" x2="693.3197" y1="455.6193" y2="455.6193"/><polygon fill="#2FA4E7" points="661.028,451.4526,650.6114,455.6193,661.028,459.786,656.8614,455.6193" style="stroke:#2FA4E7;stroke-width:1.0417;"/><text fill="#343A40" font-family="'Verdana'" font-size="12.5" lengthAdjust="spacing" textLength="93.634" x="662.0697" y="432.1615">normalize DAG</text></g><g class="message" data-entity-1="part4" data-entity-2="part5" id="msg5"><polygon fill="#2FA4E7" points="956.5257,491.6443,966.9423,495.811,956.5257,499.9776,960.6923,495.811" style="stroke:#2FA4E7;stroke-width:1.0417;"/><line style="stroke:#2FA4E7;stroke-width:3.125;" x1="649.5697" x2="962.7757" y1="495.811" y2="495.811"/><text fill="#343A40" font-family="'Verdana'" font-size="12.5" lengthAdjust="spacing" textLength="111.8469" x="662.0697" y="485.8948">compute GraphID</text></g><rect fill="url(#g1bp98nwb6svrr1)" height="3.125" rx="4.1667" ry="4.1667" style="stroke:url(#g1bp98nwb6svrr1);stroke-width:1.0417;" width="2169.6645" x="10.4167" y="530.4901"/><line style="stroke:#868E96;stroke-width:1.0417;" x1="10.4167" x2="2180.0812" y1="530.4901" y2="530.4901"/><line style="stroke:#868E96;stroke-width:1.0417;" x1="10.4167" x2="2180.0812" y1="533.6151" y2="533.6151"/><rect fill="url(#g1bp98nwb6svrr1)" height="33.9417" rx="4.1667" ry="4.1667" style="stroke:#868E96;stroke-width:2.0833;" width="168.5486" x="1010.9746" y="514.561"/><text fill="#343A40" font-family="'Verdana'" font-size="12.5" font-weight="bold" lengthAdjust="spacing" textLength="139.2761" x="1022.433" y="536.5031">Package Processing</text><path d="M506.3487,566.2109 L589.6495,566.2109 L589.6495,583.4859 L579.2328,593.9026 L502.182,593.9026 L502.182,570.3776 A4.1667,4.1667 0 0 1 506.3487,566.2109" fill="#E9ECEF" style="stroke:#868E96;stroke-width:1.0417;"/><rect fill="none" height="508.0831" rx="4.1667" ry="4.1667" style="stroke:#59B6EC;stroke-width:1.0417;" width="1451.3265" x="502.182" y="566.2109"/><text fill="#033C73" font-family="'Verdana'" font-size="12.5" font-weight="bold" lengthAdjust="spacing" textLength="30.1758" x="523.0153" y="585.0281">loop</text><text fill="#343A40" font-family="'Verdana'" font-size="12.5" font-weight="bold" lengthAdjust="spacing" textLength="136.1877" x="610.4828" y="586.0697">[For each package]</text><g class="message" data-entity-1="part4" data-entity-2="part5" id="msg6"><polygon fill="#2FA4E7" points="956.5257,631.5776,966.9423,635.7442,956.5257,639.9109,960.6923,635.7442" style="stroke:#2FA4E7;stroke-width:1.0417;"/><line style="stroke:#2FA4E7;stroke-width:3.125;" x1="649.5697" x2="962.7757" y1="635.7442" y2="635.7442"/><text fill="#343A40" font-family="'Verdana'" font-size="12.5" lengthAdjust="spacing" textLength="196.6736" x="662.0697" y="625.828">hash file contents &#8594; ContentID</text></g><g class="message" data-entity-1="part5" data-entity-2="part6" id="msg7"><polygon fill="#2FA4E7" points="1301.8728,671.7692,1312.2894,675.9359,1301.8728,680.1025,1306.0394,675.9359" style="stroke:#2FA4E7;stroke-width:1.0417;"/><line style="stroke:#2FA4E7;stroke-width:3.125;stroke-dasharray:2.0833,2.0833;" x1="969.0257" x2="1308.1228" y1="675.9359" y2="675.9359"/><text fill="#343A40" font-family="'Verdana'" font-size="12.5" lengthAdjust="spacing" textLength="110.4187" x="981.5257" y="666.0197">lookup ContentID</text></g><path d="M516.7653,691.5609 L588.207,691.5609 L588.207,708.8359 L577.7903,719.2525 L512.5987,719.2525 L512.5987,695.7275 A4.1667,4.1667 0 0 1 516.7653,691.5609" fill="#E9ECEF" style="stroke:#868E96;stroke-width:1.0417;"/><rect fill="none" height="160.3333" rx="4.1667" ry="4.1667" style="stroke:#59B6EC;stroke-width:1.0417;" width="921.4325" x="512.5987" y="691.5609"/><text fill="#033C73" font-family="'Verdana'" font-size="12.5" font-weight="bold" lengthAdjust="spacing" textLength="18.3167" x="533.432" y="710.378">alt</text><text fill="#343A40" font-family="'Verdana'" font-size="12.5" font-weight="bold" lengthAdjust="spacing" textLength="114.679" x="609.0403" y="711.4197">[Exists in Store]</text><g class="message" data-entity-1="part6" data-entity-2="part4" id="msg8"><polygon fill="#2FA4E7" points="661.028,756.9275,650.6114,761.0942,661.028,765.2608,656.8614,761.0942" style="stroke:#2FA4E7;stroke-width:1.0417;"/><line style="stroke:#2FA4E7;stroke-width:3.125;stroke-dasharray:2.0833,2.0833;" x1="654.778" x2="1313.3311" y1="761.0942" y2="761.0942"/><text fill="#343A40" font-family="'Verdana'" font-size="12.5" lengthAdjust="spacing" textLength="185.3088" x="672.4864" y="751.178">reuse existing object (dedup)</text></g><line style="stroke:#59B6EC;stroke-width:1.0417;stroke-dasharray:2.0833,2.0833;" x1="512.5987" x2="1434.0312" y1="770.4692" y2="770.4692"/><g class="message" data-entity-1="part5" data-entity-2="part6" id="msg9"><polygon fill="#2FA4E7" points="1301.8728,799.2025,1312.2894,803.3691,1301.8728,807.5358,1306.0394,803.3691" style="stroke:#2FA4E7;stroke-width:1.0417;"/><line style="stroke:#2FA4E7;stroke-width:3.125;" x1="969.0257" x2="1308.1228" y1="803.3691" y2="803.3691"/><text fill="#343A40" font-family="'Verdana'" font-size="12.5" lengthAdjust="spacing" textLength="309.9304" x="981.5257" y="793.453">insert object (chunked CAS, hybrid fixed+rolling)</text></g><g class="message" data-entity-1="part6" data-entity-2="part4" id="msg10"><polygon fill="#2FA4E7" points="661.028,839.3941,650.6114,843.5608,661.028,847.7275,656.8614,843.5608" style="stroke:#2FA4E7;stroke-width:1.0417;"/><line style="stroke:#2FA4E7;stroke-width:3.125;stroke-dasharray:2.0833,2.0833;" x1="654.778" x2="1313.3311" y1="843.5608" y2="843.5608"/><text fill="#343A40" font-family="'Verdana'" font-size="12.5" lengthAdjust="spacing" textLength="82.55" x="672.4864" y="833.6446">object stored</text></g><g class="message" data-entity-1="part4" data-entity-2="part5" id="msg11"><polygon fill="#2FA4E7" points="956.5257,886.8774,966.9423,891.0441,956.5257,895.2108,960.6923,891.0441" style="stroke:#2FA4E7;stroke-width:1.0417;"/><line style="stroke:#2FA4E7;stroke-width:3.125;" x1="649.5697" x2="962.7757" y1="891.0441" y2="891.0441"/><text fill="#343A40" font-family="'Verdana'" font-size="12.5" lengthAdjust="spacing" textLength="284.0393" x="662.0697" y="881.1279">compute PackageID (ContentIDs + GraphID)</text></g><g class="message" data-entity-1="part5" data-entity-2="part6" id="msg12"><polygon fill="#2FA4E7" points="1301.8728,927.0691,1312.2894,931.2358,1301.8728,935.4024,1306.0394,931.2358" style="stroke:#2FA4E7;stroke-width:1.0417;"/><line style="stroke:#2FA4E7;stroke-width:3.125;stroke-dasharray:2.0833,2.0833;" x1="969.0257" x2="1308.1228" y1="931.2358" y2="931.2358"/><text fill="#343A40" font-family="'Verdana'" font-size="12.5" lengthAdjust="spacing" textLength="112.6831" x="981.5257" y="921.3196">lookup PackageID</text></g><path d="M1198.881,946.8608 L1270.3227,946.8608 L1270.3227,964.1357 L1259.906,974.5524 L1194.7144,974.5524 L1194.7144,951.0274 A4.1667,4.1667 0 0 1 1198.881,946.8608" fill="#E9ECEF" style="stroke:#868E96;stroke-width:1.0417;"/><rect fill="none" height="120.1416" rx="4.1667" ry="4.1667" style="stroke:#59B6EC;stroke-width:1.0417;" width="748.3775" x="1194.7144" y="946.8608"/><text fill="#033C73" font-family="'Verdana'" font-size="12.5" font-weight="bold" lengthAdjust="spacing" textLength="18.3167" x="1215.5477" y="965.6779">alt</text><text fill="#343A40" font-family="'Verdana'" font-size="12.5" font-weight="bold" lengthAdjust="spacing" textLength="55.2856" x="1291.156" y="966.7196">[Exists]</text><g class="message" data-entity-1="part6" data-entity-2="part8" id="msg13"><polygon fill="#2FA4E7" points="1807.2622,1012.2274,1817.6788,1016.394,1807.2622,1020.5607,1811.4288,1016.394" style="stroke:#2FA4E7;stroke-width:1.0417;"/><line style="stroke:#2FA4E7;stroke-width:3.125;stroke-dasharray:2.0833,2.0833;" x1="1314.3728" x2="1813.5122" y1="1016.394" y2="1016.394"/><text fill="#343A40" font-family="'Verdana'" font-size="12.5" lengthAdjust="spacing" textLength="90.9912" x="1326.8728" y="1006.4779">reuse package</text></g><line style="stroke:#59B6EC;stroke-width:1.0417;stroke-dasharray:2.0833,2.0833;" x1="1194.7144" x2="1943.0918" y1="1025.769" y2="1025.769"/><g class="message" data-entity-1="part6" data-entity-2="part8" id="msg14"><polygon fill="#2FA4E7" points="1807.2622,1054.5024,1817.6788,1058.669,1807.2622,1062.8357,1811.4288,1058.669" style="stroke:#2FA4E7;stroke-width:1.0417;"/><line style="stroke:#2FA4E7;stroke-width:3.125;stroke-dasharray:2.0833,2.0833;" x1="1314.3728" x2="1813.5122" y1="1058.669" y2="1058.669"/><text fill="#343A40" font-family="'Verdana'" font-size="12.5" lengthAdjust="spacing" textLength="126.3245" x="1326.8728" y="1048.7528">record new package</text></g><rect fill="url(#g1bp98nwb6svrr1)" height="3.125" rx="4.1667" ry="4.1667" style="stroke:url(#g1bp98nwb6svrr1);stroke-width:1.0417;" width="2169.6645" x="10.4167" y="1107.9315"/><line style="stroke:#868E96;stroke-width:1.0417;" x1="10.4167" x2="2180.0812" y1="1107.9315" y2="1107.9315"/><line style="stroke:#868E96;stroke-width:1.0417;" x1="10.4167" x2="2180.0812" y1="1111.0565" y2="1111.0565"/><rect fill="url(#g1bp98nwb6svrr1)" height="33.9417" rx="4.1667" ry="4.1667" style="stroke:#868E96;stroke-width:2.0833;" width="155.6519" x="1017.423" y="1092.0024"/><text fill="#343A40" font-family="'Verdana'" font-size="12.5" font-weight="bold" lengthAdjust="spacing" textLength="126.3794" x="1028.8813" y="1113.9445">Parallel Execution</text><path d="M1198.881,1143.6523 L1275.3092,1143.6523 L1275.3092,1160.9273 L1264.8926,1171.344 L1194.7144,1171.344 L1194.7144,1147.819 A4.1667,4.1667 0 0 1 1198.881,1143.6523" fill="#E9ECEF" style="stroke:#868E96;stroke-width:1.0417;"/><rect fill="none" height="171.7916" rx="4.1667" ry="4.1667" style="stroke:#59B6EC;stroke-width:1.0417;" width="748.3775" x="1194.7144" y="1143.6523"/><text fill="#033C73" font-family="'Verdana'" font-size="12.5" font-weight="bold" lengthAdjust="spacing" textLength="23.3032" x="1215.5477" y="1162.4695">par</text><text fill="#343A40" font-family="'Verdana'" font-size="12.5" font-weight="bold" lengthAdjust="spacing" textLength="228.0212" x="1296.1426" y="1163.5111">[Binary Download (if available)]</text><g class="message" data-entity-1="part8" data-entity-2="part6" id="msg15"><polygon fill="#2FA4E7" points="1325.8311,1209.019,1315.4144,1213.1856,1325.8311,1217.3523,1321.6644,1213.1856" style="stroke:#2FA4E7;stroke-width:1.0417;"/><line style="stroke:#2FA4E7;stroke-width:3.125;" x1="1319.5811" x2="1818.7205" y1="1213.1856" y2="1213.1856"/><text fill="#343A40" font-family="'Verdana'" font-size="12.5" lengthAdjust="spacing" textLength="223.3521" x="1337.2894" y="1203.2694">fetch via HTTP/3 or BitTorrent/IPFS</text></g><g class="message" data-entity-1="part6" data-entity-2="part6" id="msg16"><line style="stroke:#2FA4E7;stroke-width:3.125;" x1="1314.3728" x2="1358.1228" y1="1253.3773" y2="1253.3773"/><line style="stroke:#2FA4E7;stroke-width:3.125;" x1="1358.1228" x2="1358.1228" y1="1253.3773" y2="1266.9189"/><line style="stroke:#2FA4E7;stroke-width:3.125;" x1="1315.4144" x2="1358.1228" y1="1266.9189" y2="1266.9189"/><polygon fill="#2FA4E7" points="1325.8311,1262.7523,1315.4144,1266.9189,1325.8311,1271.0856,1321.6644,1266.9189" style="stroke:#2FA4E7;stroke-width:1.0417;"/><text fill="#343A40" font-family="'Verdana'" font-size="12.5" lengthAdjust="spacing" textLength="235.1074" x="1326.8728" y="1243.4611">verify BLAKE3 hash &amp; chunk integrity</text></g><g class="message" data-entity-1="part6" data-entity-2="part8" id="msg17"><polygon fill="#2FA4E7" points="1807.2622,1302.9439,1817.6788,1307.1106,1807.2622,1311.2773,1811.4288,1307.1106" style="stroke:#2FA4E7;stroke-width:1.0417;"/><line style="stroke:#2FA4E7;stroke-width:3.125;stroke-dasharray:2.0833,2.0833;" x1="1314.3728" x2="1813.5122" y1="1307.1106" y2="1307.1106"/><text fill="#343A40" font-family="'Verdana'" font-size="12.5" lengthAdjust="spacing" textLength="121.5149" x="1326.8728" y="1297.1944">download complete</text></g><path d="M1198.881,1330.0273 L1275.3092,1330.0273 L1275.3092,1347.3022 L1264.8926,1357.7189 L1194.7144,1357.7189 L1194.7144,1334.1939 A4.1667,4.1667 0 0 1 1198.881,1330.0273" fill="#E9ECEF" style="stroke:#868E96;stroke-width:1.0417;"/><rect fill="none" height="186.9832" rx="4.1667" ry="4.1667" style="stroke:#59B6EC;stroke-width:1.0417;" width="817.2801" x="1194.7144" y="1330.0273"/><text fill="#033C73" font-family="'Verdana'" font-size="12.5" font-weight="bold" lengthAdjust="spacing" textLength="23.3032" x="1215.5477" y="1348.8444">par</text><text fill="#343A40" font-family="'Verdana'" font-size="12.5" font-weight="bold" lengthAdjust="spacing" textLength="184.7778" x="1296.1426" y="1349.8861">[Source Build (if needed)]</text><g class="message" data-entity-1="part8" data-entity-2="part8" id="msg18"><line style="stroke:#2FA4E7;stroke-width:3.125;" x1="1819.7622" x2="1863.5122" y1="1414.7522" y2="1414.7522"/><line style="stroke:#2FA4E7;stroke-width:3.125;" x1="1863.5122" x2="1863.5122" y1="1414.7522" y2="1428.2939"/><line style="stroke:#2FA4E7;stroke-width:3.125;" x1="1820.8038" x2="1863.5122" y1="1428.2939" y2="1428.2939"/><polygon fill="#2FA4E7" points="1831.2205,1424.1272,1820.8038,1428.2939,1831.2205,1432.4605,1827.0538,1428.2939" style="stroke:#2FA4E7;stroke-width:1.0417;"/><text fill="#343A40" font-family="'Verdana'" font-size="12.5" lengthAdjust="spacing" textLength="162.0239" x="1832.2622" y="1389.6444">hermetic sandboxed build</text><text fill="#343A40" font-family="'Verdana'" font-size="12.5" lengthAdjust="spacing" textLength="157.1045" x="1832.2622" y="1404.836">(namespaces + cgroups)</text></g><g class="message" data-entity-1="part8" data-entity-2="part6" id="msg19"><polygon fill="#2FA4E7" points="1325.8311,1464.3188,1315.4144,1468.4855,1325.8311,1472.6522,1321.6644,1468.4855" style="stroke:#2FA4E7;stroke-width:1.0417;"/><line style="stroke:#2FA4E7;stroke-width:3.125;" x1="1319.5811" x2="1818.7205" y1="1468.4855" y2="1468.4855"/><text fill="#343A40" font-family="'Verdana'" font-size="12.5" lengthAdjust="spacing" textLength="216.3269" x="1337.2894" y="1458.5693">write chunks with dedup-on-insert</text></g><g class="message" data-entity-1="part6" data-entity-2="part8" id="msg20"><polygon fill="#2FA4E7" points="1807.2622,1504.5105,1817.6788,1508.6772,1807.2622,1512.8438,1811.4288,1508.6772" style="stroke:#2FA4E7;stroke-width:1.0417;"/><line style="stroke:#2FA4E7;stroke-width:3.125;stroke-dasharray:2.0833,2.0833;" x1="1314.3728" x2="1813.5122" y1="1508.6772" y2="1508.6772"/><text fill="#343A40" font-family="'Verdana'" font-size="12.5" lengthAdjust="spacing" textLength="92.0349" x="1326.8728" y="1498.761">build complete</text></g><rect fill="url(#g1bp98nwb6svrr1)" height="3.125" rx="4.1667" ry="4.1667" style="stroke:url(#g1bp98nwb6svrr1);stroke-width:1.0417;" width="2169.6645" x="10.4167" y="1550.648"/><line style="stroke:#868E96;stroke-width:1.0417;" x1="10.4167" x2="2180.0812" y1="1550.648" y2="1550.648"/><line style="stroke:#868E96;stroke-width:1.0417;" x1="10.4167" x2="2180.0812" y1="1553.773" y2="1553.773"/><rect fill="url(#g1bp98nwb6svrr1)" height="33.9417" rx="4.1667" ry="4.1667" style="stroke:#868E96;stroke-width:2.0833;" width="224.115" x="983.1914" y="1534.7188"/><text fill="#343A40" font-family="'Verdana'" font-size="12.5" font-weight="bold" lengthAdjust="spacing" textLength="194.8425" x="994.6498" y="1556.661">Mutable Environment Setup</text><g class="message" data-entity-1="part8" data-entity-2="part7" id="msg21"><polygon fill="#2FA4E7" points="1585.9385,1621.9604,1575.5219,1626.1271,1585.9385,1630.2938,1581.7719,1626.1271" style="stroke:#2FA4E7;stroke-width:1.0417;"/><line style="stroke:#2FA4E7;stroke-width:3.125;" x1="1579.6885" x2="1818.7205" y1="1626.1271" y2="1626.1271"/><text fill="#343A40" font-family="'Verdana'" font-size="12.5" lengthAdjust="spacing" textLength="176.2756" x="1597.3969" y="1601.0193">configure mutable work dirs</text><text fill="#343A40" font-family="'Verdana'" font-size="12.5" lengthAdjust="spacing" textLength="154.0405" x="1597.3969" y="1616.2109">(e.g., Java security dirs)</text></g><g class="message" data-entity-1="part7" data-entity-2="part7" id="msg22"><line style="stroke:#2FA4E7;stroke-width:3.125;" x1="1574.4802" x2="1618.2302" y1="1666.3188" y2="1666.3188"/><line style="stroke:#2FA4E7;stroke-width:3.125;" x1="1618.2302" x2="1618.2302" y1="1666.3188" y2="1679.8604"/><line style="stroke:#2FA4E7;stroke-width:3.125;" x1="1575.5219" x2="1618.2302" y1="1679.8604" y2="1679.8604"/><polygon fill="#2FA4E7" points="1585.9385,1675.6938,1575.5219,1679.8604,1585.9385,1684.0271,1581.7719,1679.8604" style="stroke:#2FA4E7;stroke-width:1.0417;"/><text fill="#343A40" font-family="'Verdana'" font-size="12.5" lengthAdjust="spacing" textLength="121.5393" x="1586.9802" y="1656.4026">setup overlays/VFS</text></g><g class="message" data-entity-1="part7" data-entity-2="part8" id="msg23"><polygon fill="#2FA4E7" points="1807.2622,1715.8854,1817.6788,1720.0521,1807.2622,1724.2188,1811.4288,1720.0521" style="stroke:#2FA4E7;stroke-width:1.0417;"/><line style="stroke:#2FA4E7;stroke-width:3.125;" x1="1574.4802" x2="1813.5122" y1="1720.0521" y2="1720.0521"/><text fill="#343A40" font-family="'Verdana'" font-size="12.5" lengthAdjust="spacing" textLength="202.5391" x="1586.9802" y="1710.1359">link immutable + mutable paths</text></g><rect fill="url(#g1bp98nwb6svrr1)" height="3.125" rx="4.1667" ry="4.1667" style="stroke:url(#g1bp98nwb6svrr1);stroke-width:1.0417;" width="2169.6645" x="10.4167" y="1754.7312"/><line style="stroke:#868E96;stroke-width:1.0417;" x1="10.4167" x2="2180.0812" y1="1754.7312" y2="1754.7312"/><line style="stroke:#868E96;stroke-width:1.0417;" x1="10.4167" x2="2180.0812" y1="1757.8562" y2="1757.8562"/><rect fill="url(#g1bp98nwb6svrr1)" height="33.9417" rx="4.1667" ry="4.1667" style="stroke:#868E96;stroke-width:2.0833;" width="200.7751" x="994.8613" y="1738.8021"/><text fill="#343A40" font-family="'Verdana'" font-size="12.5" font-weight="bold" lengthAdjust="spacing" textLength="171.5027" x="1006.3197" y="1760.7442">Generation Construction</text><g class="message" data-entity-1="part8" data-entity-2="part8" id="msg24"><line style="stroke:#2FA4E7;stroke-width:3.125;" x1="1819.7622" x2="1863.5122" y1="1815.0187" y2="1815.0187"/><line style="stroke:#2FA4E7;stroke-width:3.125;" x1="1863.5122" x2="1863.5122" y1="1815.0187" y2="1828.5604"/><line style="stroke:#2FA4E7;stroke-width:3.125;" x1="1820.8038" x2="1863.5122" y1="1828.5604" y2="1828.5604"/><polygon fill="#2FA4E7" points="1831.2205,1824.3937,1820.8038,1828.5604,1831.2205,1832.7271,1827.0538,1828.5604" style="stroke:#2FA4E7;stroke-width:1.0417;"/><text fill="#343A40" font-family="'Verdana'" font-size="12.5" lengthAdjust="spacing" textLength="164.1235" x="1832.2622" y="1805.1025">build projected FHS rootfs</text></g><g class="message" data-entity-1="part8" data-entity-2="part6" id="msg25"><polygon fill="#2FA4E7" points="1325.8311,1864.5854,1315.4144,1868.752,1325.8311,1872.9187,1321.6644,1868.752" style="stroke:#2FA4E7;stroke-width:1.0417;"/><line style="stroke:#2FA4E7;stroke-width:3.125;" x1="1319.5811" x2="1818.7205" y1="1868.752" y2="1868.752"/><text fill="#343A40" font-family="'Verdana'" font-size="12.5" lengthAdjust="spacing" textLength="275.6409" x="1337.2894" y="1858.8359">compute GenerationID (sorted PackageIDs)</text></g><g class="message" data-entity-1="part8" data-entity-2="part6" id="msg26"><polygon fill="#2FA4E7" points="1325.8311,1904.777,1315.4144,1908.9437,1325.8311,1913.1104,1321.6644,1908.9437" style="stroke:#2FA4E7;stroke-width:1.0417;"/><line style="stroke:#2FA4E7;stroke-width:3.125;stroke-dasharray:2.0833,2.0833;" x1="1319.5811" x2="1818.7205" y1="1908.9437" y2="1908.9437"/><text fill="#343A40" font-family="'Verdana'" font-size="12.5" lengthAdjust="spacing" textLength="113.5864" x="1337.2894" y="1899.0275">record Generation</text></g><rect fill="url(#g1bp98nwb6svrr1)" height="3.125" rx="4.1667" ry="4.1667" style="stroke:url(#g1bp98nwb6svrr1);stroke-width:1.0417;" width="2169.6645" x="10.4167" y="1943.6228"/><line style="stroke:#868E96;stroke-width:1.0417;" x1="10.4167" x2="2180.0812" y1="1943.6228" y2="1943.6228"/><line style="stroke:#868E96;stroke-width:1.0417;" x1="10.4167" x2="2180.0812" y1="1946.7478" y2="1946.7478"/><rect fill="url(#g1bp98nwb6svrr1)" height="33.9417" rx="4.1667" ry="4.1667" style="stroke:#868E96;stroke-width:2.0833;" width="100.2258" x="1045.136" y="1927.6937"/><text fill="#343A40" font-family="'Verdana'" font-size="12.5" font-weight="bold" lengthAdjust="spacing" textLength="70.9534" x="1056.5943" y="1949.6358">Activation</text><g class="message" data-entity-1="part8" data-entity-2="part9" id="msg27"><polygon fill="#2FA4E7" points="2047.9095,1999.7437,2058.3262,2003.9103,2047.9095,2008.077,2052.0762,2003.9103" style="stroke:#2FA4E7;stroke-width:1.0417;"/><line style="stroke:#2FA4E7;stroke-width:3.125;" x1="1819.7622" x2="2054.1595" y1="2003.9103" y2="2003.9103"/><text fill="#343A40" font-family="'Verdana'" font-size="12.5" lengthAdjust="spacing" textLength="205.2307" x="1832.2622" y="1993.9941">point /system to new generation</text></g><g class="message" data-entity-1="part9" data-entity-2="part2" id="msg28"><polygon fill="#2FA4E7" points="219.2159,2039.9353,208.7992,2044.102,219.2159,2048.2686,215.0492,2044.102" style="stroke:#2FA4E7;stroke-width:1.0417;"/><line style="stroke:#2FA4E7;stroke-width:3.125;" x1="212.9659" x2="2059.3679" y1="2044.102" y2="2044.102"/><text fill="#343A40" font-family="'Verdana'" font-size="12.5" lengthAdjust="spacing" textLength="113.446" x="230.6742" y="2034.1858">activation success</text></g><g class="message" data-entity-1="part2" data-entity-2="part1" id="msg29"><polygon fill="#2FA4E7" points="49.6379,2080.127,39.2212,2084.2936,49.6379,2088.4603,45.4712,2084.2936" style="stroke:#2FA4E7;stroke-width:1.0417;"/><line style="stroke:#2FA4E7;stroke-width:3.125;" x1="43.3879" x2="206.7159" y1="2084.2936" y2="2084.2936"/><text fill="#343A40" font-family="'Verdana'" font-size="12.5" lengthAdjust="spacing" textLength="134.1614" x="61.0962" y="2074.3774">packageA installed &#10003;</text></g><path d="M811.4583,2102.002 L811.4583,2205.127 A4.1667,4.1667 0 0 0 815.625,2209.2936 L1119.7917,2209.2936 A4.1667,4.1667 0 0 0 1123.9583,2205.127 L1123.9583,2108.252 L1113.5417,2097.8353 L815.625,2097.8353 A4.1667,4.1667 0 0 0 811.4583,2102.002" fill="url(#g1bp98nwb6svrr2)" style="stroke:#033C73;stroke-width:1.0417;"/><path d="M1113.5417,2097.8353 L1113.5417,2106.1686 A2.0833,2.0833 0 0 0 1115.625,2108.252 L1123.9583,2108.252 L1113.5417,2097.8353" fill="url(#g1bp98nwb6svrr2)" style="stroke:#033C73;stroke-width:1.0417;"/><text fill="#FFFFFF" font-family="'Verdana'" font-size="12.5" font-weight="bold" lengthAdjust="spacing" textLength="128.4119" x="822.9167" y="2120.8191">Hasher / Identity:</text><text fill="#FFFFFF" font-family="'Verdana'" font-size="12.5" lengthAdjust="spacing" textLength="166.1255" x="822.9167" y="2136.0107">&#8226; ContentID = blake3(file)</text><text fill="#FFFFFF" font-family="'Verdana'" font-size="12.5" lengthAdjust="spacing" textLength="237.6465" x="822.9167" y="2151.2024">&#8226; GraphID = blake3(normalized DAG)</text><text fill="#FFFFFF" font-family="'Verdana'" font-size="12.5" lengthAdjust="spacing" textLength="280.9937" x="822.9167" y="2166.394">&#8226; PackageID = hash(ContentIDs + GraphID)</text><text fill="#FFFFFF" font-family="'Verdana'" font-size="12.5" lengthAdjust="spacing" textLength="272.5952" x="822.9167" y="2181.5857">&#8226; GenerationID = hash(sorted PackageIDs)</text><text fill="#FFFFFF" font-family="'Verdana'" font-size="12.5" lengthAdjust="spacing" textLength="257.9346" x="822.9167" y="2196.7773">&#8226; Enables binary reuse &amp; minimal rebuild</text><path d="M1159.375,2224.4019 L1159.375,2343.1519 A4.1667,4.1667 0 0 0 1163.5417,2347.3185 L1463.5417,2347.3185 A4.1667,4.1667 0 0 0 1467.7083,2343.1519 L1467.7083,2230.6519 L1457.2917,2220.2352 L1163.5417,2220.2352 A4.1667,4.1667 0 0 0 1159.375,2224.4019" fill="url(#g1bp98nwb6svrr2)" style="stroke:#033C73;stroke-width:1.0417;"/><path d="M1457.2917,2220.2352 L1457.2917,2228.5685 A2.0833,2.0833 0 0 0 1459.375,2230.6519 L1467.7083,2230.6519 L1457.2917,2220.2352" fill="url(#g1bp98nwb6svrr2)" style="stroke:#033C73;stroke-width:1.0417;"/><text fill="#FFFFFF" font-family="'Verdana'" font-size="12.5" font-weight="bold" lengthAdjust="spacing" textLength="102.0996" x="1170.8333" y="2243.219">Content Store:</text><text fill="#FFFFFF" font-family="'Verdana'" font-size="12.5" lengthAdjust="spacing" textLength="110.0098" x="1170.8333" y="2258.4106">&#8226; Immutable CAS</text><text fill="#FFFFFF" font-family="'Verdana'" font-size="12.5" lengthAdjust="spacing" textLength="214.4775" x="1170.8333" y="2273.6023">&#8226; Chunked hybrid (fixed + rolling)</text><text fill="#FFFFFF" font-family="'Verdana'" font-size="12.5" lengthAdjust="spacing" textLength="156.8298" x="1170.8333" y="2288.7939">&#8226; Bloom filter pre-checks</text><text fill="#FFFFFF" font-family="'Verdana'" font-size="12.5" lengthAdjust="spacing" textLength="186.8591" x="1170.8333" y="2303.9856">&#8226; ROAR bitmap for references</text><text fill="#FFFFFF" font-family="'Verdana'" font-size="12.5" lengthAdjust="spacing" textLength="205.8777" x="1170.8333" y="2319.1772">&#8226; Zstd/LZ4 compression optional</text><text fill="#FFFFFF" font-family="'Verdana'" font-size="12.5" lengthAdjust="spacing" textLength="276.0925" x="1170.8333" y="2334.3689">&#8226; Insert-time deduplication (no global scan)</text><path d="M1436.4583,2361.9934 L1436.4583,2434.9101 A4.1667,4.1667 0 0 0 1440.625,2439.0767 L1707.2917,2439.0767 A4.1667,4.1667 0 0 0 1711.4583,2434.9101 L1711.4583,2368.2434 L1701.0417,2357.8267 L1440.625,2357.8267 A4.1667,4.1667 0 0 0 1436.4583,2361.9934" fill="url(#g1bp98nwb6svrr2)" style="stroke:#033C73;stroke-width:1.0417;"/><path d="M1701.0417,2357.8267 L1701.0417,2366.1601 A2.0833,2.0833 0 0 0 1703.125,2368.2434 L1711.4583,2368.2434 L1701.0417,2357.8267" fill="url(#g1bp98nwb6svrr2)" style="stroke:#033C73;stroke-width:1.0417;"/><text fill="#FFFFFF" font-family="'Verdana'" font-size="12.5" font-weight="bold" lengthAdjust="spacing" textLength="126.1169" x="1447.9167" y="2380.8105">Mutable Manager:</text><text fill="#FFFFFF" font-family="'Verdana'" font-size="12.5" lengthAdjust="spacing" textLength="150.1892" x="1447.9167" y="2396.0022">&#8226; Overlays for work dirs</text><text fill="#FFFFFF" font-family="'Verdana'" font-size="12.5" lengthAdjust="spacing" textLength="236.145" x="1447.9167" y="2411.1938">&#8226; VFS for paths like Java security dirs</text><text fill="#FFFFFF" font-family="'Verdana'" font-size="12.5" lengthAdjust="spacing" textLength="243.3533" x="1447.9167" y="2426.3855">&#8226; Ensures mutable state without nix-ld</text><path d="M1698.9583,2454.01 L1698.9583,2541.51 A4.1667,4.1667 0 0 0 1703.125,2545.6767 L1934.375,2545.6767 A4.1667,4.1667 0 0 0 1938.5417,2541.51 L1938.5417,2460.26 L1928.125,2449.8433 L1703.125,2449.8433 A4.1667,4.1667 0 0 0 1698.9583,2454.01" fill="url(#g1bp98nwb6svrr2)" style="stroke:#033C73;stroke-width:1.0417;"/><path d="M1928.125,2449.8433 L1928.125,2458.1767 A2.0833,2.0833 0 0 0 1930.2083,2460.26 L1938.5417,2460.26 L1928.125,2449.8433" fill="url(#g1bp98nwb6svrr2)" style="stroke:#033C73;stroke-width:1.0417;"/><text fill="#FFFFFF" font-family="'Verdana'" font-size="12.5" font-weight="bold" lengthAdjust="spacing" textLength="137.1887" x="1710.4167" y="2472.8271">Generation Builder:</text><text fill="#FFFFFF" font-family="'Verdana'" font-size="12.5" lengthAdjust="spacing" textLength="140.3442" x="1710.4167" y="2488.0188">&#8226; Projected FHS rootfs</text><text fill="#FFFFFF" font-family="'Verdana'" font-size="12.5" lengthAdjust="spacing" textLength="151.3489" x="1710.4167" y="2503.2104">&#8226; SELinux labels applied</text><text fill="#FFFFFF" font-family="'Verdana'" font-size="12.5" lengthAdjust="spacing" textLength="207.4219" x="1710.4167" y="2518.4021">&#8226; Only rebuild changed packages</text><text fill="#FFFFFF" font-family="'Verdana'" font-size="12.5" lengthAdjust="spacing" textLength="188.3545" x="1710.4167" y="2533.5938">&#8226; Minimal rollback via symlink</text><?plantuml-src XLVDKYCt4BxFKtJsiC5clTugSgAAL1amYnCJA0mvREKYpxJ7YcUaYQInyPvooWCarvpoQ3n9Md_p0oPn5GTR_RMw-_kwMtnZrbWYfAZg0fb8lWMzuQ9YYfMGLHnEFdrAsb_qDh_a9GhDfLYOVO6mOeN6ZiMIfPjSoLfa5xAG2dPhRZ0nt93jJ_Z4zUq2xiY6vGWpeGqh2XZ1OvKnWnbSytmzckCM2xWgv2v9M6h8oQD6bP1_mrDUCM7WtSLy1cEOtCr-4KTNIWg38Xky0wQ1Jlgc3xStSxfIaGyolf1YnNEOIvQXyWX_rWTTOaKUKQHxk4SjYwq3VrQiMiCnN4u-mtdDYyP5jEaxkMPw3LEHSu44FfzFVfoUU7jxyYebbuM11MLixMTbMHksfBfTJ1OUvexwg9jWCnLRk662oce3lQLO2hRNuv-l0ZJOzS6VKQ1YXiYCwH3sJibVCRLiN5q7S3ZiWoUfuLiFRYyUwxqsMC9YNnPSR3myM6AId9qvBgbUlzMe3PoT9Uxxw7lB6vm23vAel4GcYVsPJZr7P50GSU0eJHsJpkTBjceN5JaFC78G6I8NbVqn2tXYCujeZZffxFeO8LN92luLBVSz8qybcQIoh6g3u4GoktI1HQLJJLFKcelSHbL8MS4LwHfPkewf9a2VWuxNLaOhJYIdNY8Qdl_u4u9Uw2QB3DOZ0ZgLk5B9JLszi6E5WIcr8JdX8WWAmiS3H_tC5TOQmNQkiU7BfHK776MOrTN0GT5EWEWZnj66GPIYCWqmNTTYG-KdKN-0zNwfU4R9FM5sh6H1cia7_nrFyAFjMURl5zdRnOki12Pcbt3K54GJ-O6jmVyKiO6_AEA1M4EpDANhyjihrM58AbK60dTz7ALe_xoc57K8JSZf4wQDqadKSCu5Ktkub3lXskI8hu1j6Iziv_iCuqsT35TeI8LRpk3wuU5kV0BIUZ8FKYcgqdXsTxL8Ek6sG2erN-t1ppMlqlVWw2NE3UQActtoLg9P3D8IL20D1vUVJMCXQvMYjtKv24IIswi4McT4MeaqcK0paIqbYGcMzf06ac0bQYebMh9Jkvag_MOfTXGo-XGqxBXPWvFvI8gHL_6RwRZhNkH2N7McCwSjLRhvZeO4HPHr0eXsfs4grNH1dFuxgJQGSQKf6_oOV_m0Fn2fe8byMs5tD4YYXvupxQwIdMNGjMkZjwCQUBDlZfkxAsRMscNIMHNKFzgeEetIEqY9BqZLtIMWf3GhdHmeV3CxcrjiesgfBBJfFKgpmNR0eMTQh0kuivxwCSPjP3U19A52t5b6khxBMp-DQREVMEjLrwcTwN53FUgmNFpYYfkCud_--wya4PBSM2RYxXyEmxGPmuoM3xsGzgV3OVBy-p_jn8OpM1PiWoT7TlmFt64OMErHiveokvkyKJljpbnZlZ7pdBzkoOFrWS9Rqwcmej2mz7F6ZxVtK7B1AGBwxaYtuWURRZTflsY6mzuZ9-RRU-du2eGb4VR3aLiG57cp8gpHEStcqYv6GnTK2aVf6jEDTcVtjvDxYjEKh88L3JI5AwHnHeIvuo_QPEFvb--Sy9JTp4Ieh6mLME5ZSlq-ClJQzKEWuAdddGeEUI6NbB5EcHWSp3S-juR3s73XZHHpZYyq5rtJukw8sjJzwfgFUdE31pe-4A9fKkYcNKbn580TNB8s8FZJw0qwueDkE7pz18mHtXtgNNkmcCwvg9-0rWhjCs0LrOPMiSjA5Fke0vgZJEG43otXmJTHBCIa_L_1BHxjNujjgFy2?></g></svg>