<svg xmlns="http://www.w3.org/2000/svg" xmlns:xlink="http://www.w3.org/1999/xlink" contentStyleType="text/css" data-diagram-type="SEQUENCE" preserveAspectRatio="none" version="1.1" viewBox="0 0 1796 2257" zoomAndPan="magnify"><title>NexisOS Package Install - High-Level Flow</title><defs><linearGradient id="g17c24sp6lyrmr0" x1="50%" x2="50%" y1="0%" y2="100%"><stop offset="0%" stop-color="#59B6EC"/><stop offset="100%" stop-color="#2FA4E7"/></linearGradient><linearGradient id="g17c24sp6lyrmr1" x1="50%" x2="50%" y1="0%" y2="100%"><stop offset="0%" stop-color="#FFFFFF"/><stop offset="100%" stop-color="#F8F9FA"/></linearGradient><linearGradient id="g17c24sp6lyrmr2" x1="50%" x2="50%" y1="0%" y2="100%"><stop offset="0%" stop-color="#35638F"/><stop offset="100%" stop-color="#033C73"/></linearGradient></defs><g><rect fill="none" height="48.2361" rx="4.1667" ry="4.1667" style="stroke:#BABDBF;stroke-width:1.0417;" width="520.8415" x="636.6348" y="20.8333"/><text fill="#2FA4E7" font-family="'Verdana'" font-size="20.8333" font-weight="bold" lengthAdjust="spacing" textLength="497.9248" x="648.0932" y="53.2369">NexisOS Package Install - High-Level Flow</text><rect fill="none" height="185.9416" rx="4.1667" ry="4.1667" style="stroke:#59B6EC;stroke-width:1.0417;" width="1261.7208" x="512.5987" y="673.6776"/><rect fill="none" height="171.7916" rx="4.1667" ry="4.1667" style="stroke:#59B6EC;stroke-width:1.0417;" width="582.726" x="778.422" y="928.9775"/><rect fill="none" height="255.9082" rx="4.1667" ry="4.1667" style="stroke:#59B6EC;stroke-width:1.0417;" width="541.8203" x="778.422" y="1115.3524"/><g><title>User</title><rect fill="#000000" fill-opacity="0.00000" height="1989.2741" width="8.3333" x="34.0129" y="169.6777"/><line style="stroke:#BABDBF;stroke-width:1.0417;stroke-dasharray:5.2083,5.2083;" x1="37.5" x2="37.5" y1="169.6777" y2="2158.9518"/></g><g><title>CLI . API</title><rect fill="#000000" fill-opacity="0.00000" height="1989.2741" width="8.3333" x="203.5909" y="169.6777"/><line style="stroke:#BABDBF;stroke-width:1.0417;stroke-dasharray:5.2083,5.2083;" x1="207.372" x2="207.372" y1="169.6777" y2="2158.9518"/></g><g><title>TOML Parser</title><rect fill="#000000" fill-opacity="0.00000" height="1989.2741" width="8.3333" x="405.1626" y="169.6777"/><line style="stroke:#BABDBF;stroke-width:1.0417;stroke-dasharray:5.2083,5.2083;" x1="409.1848" x2="409.1848" y1="169.6777" y2="2158.9518"/></g><g><title>Derivation Resolver</title><rect fill="#000000" fill-opacity="0.00000" height="1989.2741" width="8.3333" x="634.435" y="169.6777"/><line style="stroke:#BABDBF;stroke-width:1.0417;stroke-dasharray:5.2083,5.2083;" x1="637.5987" x2="637.5987" y1="169.6777" y2="2158.9518"/></g><g><title>Execution Engine</title><rect fill="#000000" fill-opacity="0.00000" height="1989.2741" width="8.3333" x="893.4377" y="169.6777"/><line style="stroke:#BABDBF;stroke-width:1.0417;stroke-dasharray:5.2083,5.2083;" x1="897.172" x2="897.172" y1="169.6777" y2="2158.9518"/></g><g><title>Content Store</title><rect fill="#000000" fill-opacity="0.00000" height="1989.2741" width="8.3333" x="1140.9882" y="169.6777"/><line style="stroke:#BABDBF;stroke-width:1.0417;stroke-dasharray:5.2083,5.2083;" x1="1144.7174" x2="1144.7174" y1="169.6777" y2="2158.9518"/></g><g><title>Mutable Env Manager</title><rect fill="#000000" fill-opacity="0.00000" height="1989.2741" width="8.3333" x="1392.5446" y="169.6777"/><line style="stroke:#BABDBF;stroke-width:1.0417;stroke-dasharray:5.2083,5.2083;" x1="1396.6339" x2="1396.6339" y1="169.6777" y2="2158.9518"/></g><g><title>Activation Manager</title><rect fill="#000000" fill-opacity="0.00000" height="1989.2741" width="8.3333" x="1642.3248" y="169.6777"/><line style="stroke:#BABDBF;stroke-width:1.0417;stroke-dasharray:5.2083,5.2083;" x1="1645.7469" x2="1645.7469" y1="169.6777" y2="2158.9518"/></g><g class="participant participant-head" data-participant="User"><text fill="#343A40" font-family="'Verdana'" font-size="12.5" lengthAdjust="spacing" textLength="28.4424" x="20.8333" y="161.8449">User</text><ellipse cx="38.1795" cy="89.9028" fill="url(#g17c24sp6lyrmr0)" rx="8.3333" ry="8.3333" style="stroke:#2FA4E7;stroke-width:1.0417;"/><path d="M38.1795,98.2361 L38.1795,126.3611 M24.6379,106.5694 L51.7212,106.5694 M38.1795,126.3611 L24.6379,141.9861 M38.1795,126.3611 L51.7212,141.9861" fill="none" style="stroke:#2FA4E7;stroke-width:1.0417;"/></g><g class="participant participant-tail" data-participant="User"><text fill="#343A40" font-family="'Verdana'" font-size="12.5" lengthAdjust="spacing" textLength="28.4424" x="20.8333" y="2175.6856">User</text><ellipse cx="38.1795" cy="2192.8935" fill="url(#g17c24sp6lyrmr0)" rx="8.3333" ry="8.3333" style="stroke:#2FA4E7;stroke-width:1.0417;"/><path d="M38.1795,2201.2268 L38.1795,2229.3518 M24.6379,2209.5601 L51.7212,2209.5601 M38.1795,2229.3518 L24.6379,2244.9768 M38.1795,2229.3518 L51.7212,2244.9768" fill="none" style="stroke:#2FA4E7;stroke-width:1.0417;"/></g><g class="participant participant-head" data-participant="CLI"><rect fill="url(#g17c24sp6lyrmr0)" height="55.3833" rx="4.1667" ry="4.1667" style="stroke:#2FA4E7;stroke-width:1.0417;" width="92.4377" x="161.5387" y="113.2528"/><text fill="#FFFFFF" font-family="'Verdana'" font-size="12.5" lengthAdjust="spacing" textLength="56.7566" x="179.3793" y="138.3199">CLI / API</text><text fill="#FFFFFF" font-family="'Verdana'" font-size="12.5" lengthAdjust="spacing" textLength="67.4377" x="174.0387" y="153.5116">(Frontend)</text></g><g class="participant participant-tail" data-participant="CLI"><rect fill="url(#g17c24sp6lyrmr0)" height="55.3833" rx="4.1667" ry="4.1667" style="stroke:#2FA4E7;stroke-width:1.0417;" width="92.4377" x="161.5387" y="2157.9102"/><text fill="#FFFFFF" font-family="'Verdana'" font-size="12.5" lengthAdjust="spacing" textLength="56.7566" x="179.3793" y="2182.9773">CLI / API</text><text fill="#FFFFFF" font-family="'Verdana'" font-size="12.5" lengthAdjust="spacing" textLength="67.4377" x="174.0387" y="2198.1689">(Frontend)</text></g><g class="participant participant-head" data-participant="Parser"><rect fill="url(#g17c24sp6lyrmr0)" height="55.3833" rx="4.1667" ry="4.1667" style="stroke:#2FA4E7;stroke-width:1.0417;" width="123.2056" x="347.7264" y="113.2528"/><text fill="#FFFFFF" font-family="'Verdana'" font-size="12.5" lengthAdjust="spacing" textLength="79.1016" x="369.7784" y="138.3199">TOML Parser</text><text fill="#FFFFFF" font-family="'Verdana'" font-size="12.5" lengthAdjust="spacing" textLength="98.2056" x="360.2264" y="153.5116">(Config Loader)</text></g><g class="participant participant-tail" data-participant="Parser"><rect fill="url(#g17c24sp6lyrmr0)" height="55.3833" rx="4.1667" ry="4.1667" style="stroke:#2FA4E7;stroke-width:1.0417;" width="123.2056" x="347.7264" y="2157.9102"/><text fill="#FFFFFF" font-family="'Verdana'" font-size="12.5" lengthAdjust="spacing" textLength="79.1016" x="369.7784" y="2182.9773">TOML Parser</text><text fill="#FFFFFF" font-family="'Verdana'" font-size="12.5" lengthAdjust="spacing" textLength="98.2056" x="360.2264" y="2198.1689">(Config Loader)</text></g><g class="participant participant-head" data-participant="Resolver"><rect fill="url(#g17c24sp6lyrmr0)" height="55.3833" rx="4.1667" ry="4.1667" style="stroke:#2FA4E7;stroke-width:1.0417;" width="147.8394" x="564.682" y="113.2528"/><text fill="#FFFFFF" font-family="'Verdana'" font-size="12.5" lengthAdjust="spacing" textLength="122.8394" x="577.182" y="138.3199">Derivation Resolver</text><text fill="#FFFFFF" font-family="'Verdana'" font-size="12.5" lengthAdjust="spacing" textLength="87.5244" x="594.8395" y="153.5116">(DAG Builder)</text></g><g class="participant participant-tail" data-participant="Resolver"><rect fill="url(#g17c24sp6lyrmr0)" height="55.3833" rx="4.1667" ry="4.1667" style="stroke:#2FA4E7;stroke-width:1.0417;" width="147.8394" x="564.682" y="2157.9102"/><text fill="#FFFFFF" font-family="'Verdana'" font-size="12.5" lengthAdjust="spacing" textLength="122.8394" x="577.182" y="2182.9773">Derivation Resolver</text><text fill="#FFFFFF" font-family="'Verdana'" font-size="12.5" lengthAdjust="spacing" textLength="87.5244" x="594.8395" y="2198.1689">(DAG Builder)</text></g><g class="participant participant-head" data-participant="Exec"><rect fill="url(#g17c24sp6lyrmr0)" height="55.3833" rx="4.1667" ry="4.1667" style="stroke:#2FA4E7;stroke-width:1.0417;" width="134.198" x="830.5054" y="113.2528"/><text fill="#FFFFFF" font-family="'Verdana'" font-size="12.5" lengthAdjust="spacing" textLength="107.8064" x="843.7012" y="138.3199">Execution Engine</text><text fill="#FFFFFF" font-family="'Verdana'" font-size="12.5" lengthAdjust="spacing" textLength="109.198" x="843.0054" y="153.5116">(Build Scheduler)</text></g><g class="participant participant-tail" data-participant="Exec"><rect fill="url(#g17c24sp6lyrmr0)" height="55.3833" rx="4.1667" ry="4.1667" style="stroke:#2FA4E7;stroke-width:1.0417;" width="134.198" x="830.5054" y="2157.9102"/><text fill="#FFFFFF" font-family="'Verdana'" font-size="12.5" lengthAdjust="spacing" textLength="107.8064" x="843.7012" y="2182.9773">Execution Engine</text><text fill="#FFFFFF" font-family="'Verdana'" font-size="12.5" lengthAdjust="spacing" textLength="109.198" x="843.0054" y="2198.1689">(Build Scheduler)</text></g><g class="participant participant-head" data-participant="Store"><rect fill="url(#g17c24sp6lyrmr0)" height="55.3833" rx="4.1667" ry="4.1667" style="stroke:#2FA4E7;stroke-width:1.0417;" width="155.0415" x="1067.6341" y="113.2528"/><text fill="#FFFFFF" font-family="'Verdana'" font-size="12.5" lengthAdjust="spacing" textLength="87.6648" x="1101.3224" y="138.3199">Content Store</text><text fill="#FFFFFF" font-family="'Verdana'" font-size="12.5" lengthAdjust="spacing" textLength="130.0415" x="1080.1341" y="153.5116">(CAS + Merkle DAG)</text></g><g class="participant participant-tail" data-participant="Store"><rect fill="url(#g17c24sp6lyrmr0)" height="55.3833" rx="4.1667" ry="4.1667" style="stroke:#2FA4E7;stroke-width:1.0417;" width="155.0415" x="1067.6341" y="2157.9102"/><text fill="#FFFFFF" font-family="'Verdana'" font-size="12.5" lengthAdjust="spacing" textLength="87.6648" x="1101.3224" y="2182.9773">Content Store</text><text fill="#FFFFFF" font-family="'Verdana'" font-size="12.5" lengthAdjust="spacing" textLength="130.0415" x="1080.1341" y="2198.1689">(CAS + Merkle DAG)</text></g><g class="participant participant-head" data-participant="Mutable"><rect fill="url(#g17c24sp6lyrmr0)" height="55.3833" rx="4.1667" ry="4.1667" style="stroke:#2FA4E7;stroke-width:1.0417;" width="160.5713" x="1316.4256" y="113.2528"/><text fill="#FFFFFF" font-family="'Verdana'" font-size="12.5" lengthAdjust="spacing" textLength="135.5713" x="1328.9256" y="138.3199">Mutable Env Manager</text><text fill="#FFFFFF" font-family="'Verdana'" font-size="12.5" lengthAdjust="spacing" textLength="96.167" x="1348.6277" y="153.5116">(Overlays/VFS)</text></g><g class="participant participant-tail" data-participant="Mutable"><rect fill="url(#g17c24sp6lyrmr0)" height="55.3833" rx="4.1667" ry="4.1667" style="stroke:#2FA4E7;stroke-width:1.0417;" width="160.5713" x="1316.4256" y="2157.9102"/><text fill="#FFFFFF" font-family="'Verdana'" font-size="12.5" lengthAdjust="spacing" textLength="135.5713" x="1328.9256" y="2182.9773">Mutable Env Manager</text><text fill="#FFFFFF" font-family="'Verdana'" font-size="12.5" lengthAdjust="spacing" textLength="96.167" x="1348.6277" y="2198.1689">(Overlays/VFS)</text></g><g class="participant participant-head" data-participant="Activate"><rect fill="url(#g17c24sp6lyrmr0)" height="55.3833" rx="4.1667" ry="4.1667" style="stroke:#2FA4E7;stroke-width:1.0417;" width="151.4893" x="1570.7469" y="113.2528"/><text fill="#FFFFFF" font-family="'Verdana'" font-size="12.5" lengthAdjust="spacing" textLength="120.5933" x="1586.1949" y="138.3199">Activation Manager</text><text fill="#FFFFFF" font-family="'Verdana'" font-size="12.5" lengthAdjust="spacing" textLength="126.4893" x="1583.2469" y="153.5116">(Generation Switch)</text></g><g class="participant participant-tail" data-participant="Activate"><rect fill="url(#g17c24sp6lyrmr0)" height="55.3833" rx="4.1667" ry="4.1667" style="stroke:#2FA4E7;stroke-width:1.0417;" width="151.4893" x="1570.7469" y="2157.9102"/><text fill="#FFFFFF" font-family="'Verdana'" font-size="12.5" lengthAdjust="spacing" textLength="120.5933" x="1586.1949" y="2182.9773">Activation Manager</text><text fill="#FFFFFF" font-family="'Verdana'" font-size="12.5" lengthAdjust="spacing" textLength="126.4893" x="1583.2469" y="2198.1689">(Generation Switch)</text></g><rect fill="url(#g17c24sp6lyrmr1)" height="3.125" rx="4.1667" ry="4.1667" style="stroke:url(#g17c24sp6lyrmr1);stroke-width:1.0417;" width="1774.3195" x="10.4167" y="206.4402"/><line style="stroke:#868E96;stroke-width:1.0417;" x1="10.4167" x2="1784.7361" y1="206.4402" y2="206.4402"/><line style="stroke:#868E96;stroke-width:1.0417;" x1="10.4167" x2="1784.7361" y1="209.5652" y2="209.5652"/><rect fill="url(#g17c24sp6lyrmr1)" height="33.9417" rx="4.1667" ry="4.1667" style="stroke:#868E96;stroke-width:2.0833;" width="122.76" x="836.1964" y="190.5111"/><text fill="#343A40" font-family="'Verdana'" font-size="12.5" font-weight="bold" lengthAdjust="spacing" textLength="93.4875" x="847.6547" y="212.4532">User Request</text><g class="message" data-participant-1="User" data-participant-2="CLI"><polygon fill="#2FA4E7" points="195.2576,262.561,205.6742,266.7277,195.2576,270.8944,199.4242,266.7277" style="stroke:#2FA4E7;stroke-width:1.0417;"/><line style="stroke:#2FA4E7;stroke-width:3.125;" x1="38.1795" x2="201.5076" y1="266.7277" y2="266.7277"/><text fill="#343A40" font-family="'Verdana'" font-size="12.5" lengthAdjust="spacing" textLength="102.0325" x="50.6795" y="256.8115">install packageA</text></g><g class="message" data-participant-1="CLI" data-participant-2="Parser"><polygon fill="#2FA4E7" points="396.8292,302.7527,407.2459,306.9194,396.8292,311.086,400.9959,306.9194" style="stroke:#2FA4E7;stroke-width:1.0417;"/><line style="stroke:#2FA4E7;stroke-width:3.125;" x1="207.7576" x2="403.0792" y1="306.9194" y2="306.9194"/><text fill="#343A40" font-family="'Verdana'" font-size="12.5" lengthAdjust="spacing" textLength="107.7576" x="220.2576" y="297.0032">load TOML config</text></g><rect fill="url(#g17c24sp6lyrmr1)" height="3.125" rx="4.1667" ry="4.1667" style="stroke:url(#g17c24sp6lyrmr1);stroke-width:1.0417;" width="1774.3195" x="10.4167" y="341.5985"/><line style="stroke:#868E96;stroke-width:1.0417;" x1="10.4167" x2="1784.7361" y1="341.5985" y2="341.5985"/><line style="stroke:#868E96;stroke-width:1.0417;" x1="10.4167" x2="1784.7361" y1="344.7235" y2="344.7235"/><rect fill="url(#g17c24sp6lyrmr1)" height="33.9417" rx="4.1667" ry="4.1667" style="stroke:#868E96;stroke-width:2.0833;" width="181.3416" x="806.9056" y="325.6694"/><text fill="#343A40" font-family="'Verdana'" font-size="12.5" font-weight="bold" lengthAdjust="spacing" textLength="152.0691" x="818.364" y="347.6115">Derivation Resolution</text><g class="message" data-participant-1="Parser" data-participant-2="Resolver"><polygon fill="#2FA4E7" points="626.1017,397.7193,636.5184,401.886,626.1017,406.0527,630.2684,401.886" style="stroke:#2FA4E7;stroke-width:1.0417;"/><line style="stroke:#2FA4E7;stroke-width:3.125;" x1="409.3292" x2="632.3517" y1="401.886" y2="401.886"/><text fill="#343A40" font-family="'Verdana'" font-size="12.5" lengthAdjust="spacing" textLength="188.8367" x="421.8292" y="391.9698">parsed config + dependencies</text></g><g class="message" data-participant-1="Resolver" data-participant-2="Resolver"><line style="stroke:#2FA4E7;stroke-width:3.125;" x1="638.6017" x2="682.3517" y1="442.0776" y2="442.0776"/><line style="stroke:#2FA4E7;stroke-width:3.125;" x1="682.3517" x2="682.3517" y1="442.0776" y2="455.6193"/><line style="stroke:#2FA4E7;stroke-width:3.125;" x1="639.6434" x2="682.3517" y1="455.6193" y2="455.6193"/><polygon fill="#2FA4E7" points="650.06,451.4526,639.6434,455.6193,650.06,459.786,645.8934,455.6193" style="stroke:#2FA4E7;stroke-width:1.0417;"/><text fill="#343A40" font-family="'Verdana'" font-size="12.5" lengthAdjust="spacing" textLength="129.2358" x="651.1017" y="432.1615">build persistent DAG</text></g><g class="message" data-participant-1="Resolver" data-participant-2="Resolver"><line style="stroke:#2FA4E7;stroke-width:3.125;" x1="638.6017" x2="682.3517" y1="495.811" y2="495.811"/><line style="stroke:#2FA4E7;stroke-width:3.125;" x1="682.3517" x2="682.3517" y1="495.811" y2="509.3526"/><line style="stroke:#2FA4E7;stroke-width:3.125;" x1="639.6434" x2="682.3517" y1="509.3526" y2="509.3526"/><polygon fill="#2FA4E7" points="650.06,505.186,639.6434,509.3526,650.06,513.5193,645.8934,509.3526" style="stroke:#2FA4E7;stroke-width:1.0417;"/><text fill="#343A40" font-family="'Verdana'" font-size="12.5" lengthAdjust="spacing" textLength="234.0027" x="651.1017" y="485.8948">compute derivation hashes (BLAKE3)</text></g><rect fill="url(#g17c24sp6lyrmr1)" height="3.125" rx="4.1667" ry="4.1667" style="stroke:url(#g17c24sp6lyrmr1);stroke-width:1.0417;" width="1774.3195" x="10.4167" y="544.0318"/><line style="stroke:#868E96;stroke-width:1.0417;" x1="10.4167" x2="1784.7361" y1="544.0318" y2="544.0318"/><line style="stroke:#868E96;stroke-width:1.0417;" x1="10.4167" x2="1784.7361" y1="547.1568" y2="547.1568"/><rect fill="url(#g17c24sp6lyrmr1)" height="33.9417" rx="4.1667" ry="4.1667" style="stroke:#868E96;stroke-width:2.0833;" width="235.9314" x="779.6107" y="528.1026"/><text fill="#343A40" font-family="'Verdana'" font-size="12.5" font-weight="bold" lengthAdjust="spacing" textLength="206.6589" x="791.069" y="550.0448">Hash Lookup &amp; Deduplication</text><g class="message" data-participant-1="Resolver" data-participant-2="Store"><polygon fill="#2FA4E7" points="1132.6548,600.1526,1143.0715,604.3193,1132.6548,608.4859,1136.8215,604.3193" style="stroke:#2FA4E7;stroke-width:1.0417;"/><line style="stroke:#2FA4E7;stroke-width:3.125;" x1="638.6017" x2="1138.9048" y1="604.3193" y2="604.3193"/><text fill="#343A40" font-family="'Verdana'" font-size="12.5" lengthAdjust="spacing" textLength="137.262" x="651.1017" y="594.4031">query derivation hash</text></g><g class="message" data-participant-1="Store" data-participant-2="Store"><line style="stroke:#2FA4E7;stroke-width:3.125;" x1="1145.1548" x2="1188.9048" y1="644.5109" y2="644.5109"/><line style="stroke:#2FA4E7;stroke-width:3.125;" x1="1188.9048" x2="1188.9048" y1="644.5109" y2="658.0526"/><line style="stroke:#2FA4E7;stroke-width:3.125;" x1="1146.1965" x2="1188.9048" y1="658.0526" y2="658.0526"/><polygon fill="#2FA4E7" points="1156.6132,653.8859,1146.1965,658.0526,1156.6132,662.2192,1152.4465,658.0526" style="stroke:#2FA4E7;stroke-width:1.0417;"/><text fill="#343A40" font-family="'Verdana'" font-size="12.5" lengthAdjust="spacing" textLength="138.324" x="1157.6548" y="634.5947">bloom filter pre-check</text></g><path d="M516.7653,673.6776 L588.207,673.6776 L588.207,690.9526 L577.7903,701.3692 L512.5987,701.3692 L512.5987,677.8442 A4.1667,4.1667 0 0 1 516.7653,673.6776" fill="#E9ECEF" style="stroke:#868E96;stroke-width:1.0417;"/><rect fill="none" height="185.9416" rx="4.1667" ry="4.1667" style="stroke:#59B6EC;stroke-width:1.0417;" width="1261.7208" x="512.5987" y="673.6776"/><text fill="#033C73" font-family="'Verdana'" font-size="12.5" font-weight="bold" lengthAdjust="spacing" textLength="18.3167" x="533.432" y="692.4947">alt</text><text fill="#343A40" font-family="'Verdana'" font-size="12.5" font-weight="bold" lengthAdjust="spacing" textLength="80.249" x="609.0403" y="693.5364">[Cache Hit]</text><g class="message" data-participant-1="Store" data-participant-2="Resolver"><polygon fill="#2FA4E7" points="650.06,739.0442,639.6434,743.2109,650.06,747.3775,645.8934,743.2109" style="stroke:#2FA4E7;stroke-width:1.0417;"/><line style="stroke:#2FA4E7;stroke-width:3.125;stroke-dasharray:2.0833,2.0833;" x1="643.81" x2="1144.1132" y1="743.2109" y2="743.2109"/><text fill="#343A40" font-family="'Verdana'" font-size="12.5" lengthAdjust="spacing" textLength="103.3752" x="661.5184" y="733.2947">derivation exists</text></g><g class="message" data-participant-1="Resolver" data-participant-2="Activate"><polygon fill="#2FA4E7" points="1633.9915,779.2358,1644.4082,783.4025,1633.9915,787.5692,1638.1582,783.4025" style="stroke:#2FA4E7;stroke-width:1.0417;"/><line style="stroke:#2FA4E7;stroke-width:3.125;" x1="638.6017" x2="1640.2415" y1="783.4025" y2="783.4025"/><text fill="#343A40" font-family="'Verdana'" font-size="12.5" lengthAdjust="spacing" textLength="107.6294" x="651.1017" y="773.4863">use existing path</text></g><line style="stroke:#59B6EC;stroke-width:1.0417;stroke-dasharray:2.0833,2.0833;" x1="512.5987" x2="1774.3195" y1="792.7775" y2="792.7775"/><text fill="#343A40" font-family="'Verdana'" font-size="12.5" font-weight="bold" lengthAdjust="spacing" textLength="90.7654" x="523.0153" y="810.553">[Cache Miss]</text><g class="message" data-participant-1="Resolver" data-participant-2="Exec"><polygon fill="#2FA4E7" points="885.1044,847.1191,895.521,851.2858,885.1044,855.4525,889.271,851.2858" style="stroke:#2FA4E7;stroke-width:1.0417;"/><line style="stroke:#2FA4E7;stroke-width:3.125;" x1="638.6017" x2="891.3544" y1="851.2858" y2="851.2858"/><text fill="#343A40" font-family="'Verdana'" font-size="12.5" lengthAdjust="spacing" textLength="155.2002" x="651.1017" y="841.3696">schedule build/download</text></g><rect fill="url(#g17c24sp6lyrmr1)" height="3.125" rx="4.1667" ry="4.1667" style="stroke:url(#g17c24sp6lyrmr1);stroke-width:1.0417;" width="1774.3195" x="10.4167" y="893.2566"/><line style="stroke:#868E96;stroke-width:1.0417;" x1="10.4167" x2="1784.7361" y1="893.2566" y2="893.2566"/><line style="stroke:#868E96;stroke-width:1.0417;" x1="10.4167" x2="1784.7361" y1="896.3816" y2="896.3816"/><rect fill="url(#g17c24sp6lyrmr1)" height="33.9417" rx="4.1667" ry="4.1667" style="stroke:#868E96;stroke-width:2.0833;" width="155.6519" x="819.7505" y="877.3275"/><text fill="#343A40" font-family="'Verdana'" font-size="12.5" font-weight="bold" lengthAdjust="spacing" textLength="126.3794" x="831.2088" y="899.2696">Parallel Execution</text><path d="M782.5887,928.9775 L859.0169,928.9775 L859.0169,946.2524 L848.6003,956.6691 L778.422,956.6691 L778.422,933.1441 A4.1667,4.1667 0 0 1 782.5887,928.9775" fill="#E9ECEF" style="stroke:#868E96;stroke-width:1.0417;"/><rect fill="none" height="171.7916" rx="4.1667" ry="4.1667" style="stroke:#59B6EC;stroke-width:1.0417;" width="582.726" x="778.422" y="928.9775"/><text fill="#033C73" font-family="'Verdana'" font-size="12.5" font-weight="bold" lengthAdjust="spacing" textLength="23.3032" x="799.2554" y="947.7946">par</text><text fill="#343A40" font-family="'Verdana'" font-size="12.5" font-weight="bold" lengthAdjust="spacing" textLength="228.0212" x="879.8503" y="948.8363">[Binary Download (if available)]</text><g class="message" data-participant-1="Exec" data-participant-2="Store"><polygon fill="#2FA4E7" points="1132.6548,994.3441,1143.0715,998.5107,1132.6548,1002.6774,1136.8215,998.5107" style="stroke:#2FA4E7;stroke-width:1.0417;"/><line style="stroke:#2FA4E7;stroke-width:3.125;" x1="897.6044" x2="1138.9048" y1="998.5107" y2="998.5107"/><text fill="#343A40" font-family="'Verdana'" font-size="12.5" lengthAdjust="spacing" textLength="189.1479" x="910.1044" y="988.5946">fetch via HTTP/3 or BitTorrent</text></g><g class="message" data-participant-1="Store" data-participant-2="Store"><line style="stroke:#2FA4E7;stroke-width:3.125;" x1="1145.1548" x2="1188.9048" y1="1038.7024" y2="1038.7024"/><line style="stroke:#2FA4E7;stroke-width:3.125;" x1="1188.9048" x2="1188.9048" y1="1038.7024" y2="1052.2441"/><line style="stroke:#2FA4E7;stroke-width:3.125;" x1="1146.1965" x2="1188.9048" y1="1052.2441" y2="1052.2441"/><polygon fill="#2FA4E7" points="1156.6132,1048.0774,1146.1965,1052.2441,1156.6132,1056.4107,1152.4465,1052.2441" style="stroke:#2FA4E7;stroke-width:1.0417;"/><text fill="#343A40" font-family="'Verdana'" font-size="12.5" lengthAdjust="spacing" textLength="185.7849" x="1157.6548" y="1028.7862">verify BLAKE3 hash + chunks</text></g><g class="message" data-participant-1="Store" data-participant-2="Exec"><polygon fill="#2FA4E7" points="909.0627,1088.269,898.646,1092.4357,909.0627,1096.6024,904.896,1092.4357" style="stroke:#2FA4E7;stroke-width:1.0417;"/><line style="stroke:#2FA4E7;stroke-width:3.125;stroke-dasharray:2.0833,2.0833;" x1="902.8127" x2="1144.1132" y1="1092.4357" y2="1092.4357"/><text fill="#343A40" font-family="'Verdana'" font-size="12.5" lengthAdjust="spacing" textLength="121.5149" x="920.521" y="1082.5195">download complete</text></g><path d="M782.5887,1115.3524 L859.0169,1115.3524 L859.0169,1132.6274 L848.6003,1143.044 L778.422,1143.044 L778.422,1119.519 A4.1667,4.1667 0 0 1 782.5887,1115.3524" fill="#E9ECEF" style="stroke:#868E96;stroke-width:1.0417;"/><rect fill="none" height="255.9082" rx="4.1667" ry="4.1667" style="stroke:#59B6EC;stroke-width:1.0417;" width="541.8203" x="778.422" y="1115.3524"/><text fill="#033C73" font-family="'Verdana'" font-size="12.5" font-weight="bold" lengthAdjust="spacing" textLength="23.3032" x="799.2554" y="1134.1695">par</text><text fill="#343A40" font-family="'Verdana'" font-size="12.5" font-weight="bold" lengthAdjust="spacing" textLength="184.7778" x="879.8503" y="1135.2112">[Source Build (if needed)]</text><g class="message" data-participant-1="Exec" data-participant-2="Exec"><line style="stroke:#2FA4E7;stroke-width:3.125;" x1="897.6044" x2="941.3544" y1="1200.0773" y2="1200.0773"/><line style="stroke:#2FA4E7;stroke-width:3.125;" x1="941.3544" x2="941.3544" y1="1200.0773" y2="1213.619"/><line style="stroke:#2FA4E7;stroke-width:3.125;" x1="898.646" x2="941.3544" y1="1213.619" y2="1213.619"/><polygon fill="#2FA4E7" points="909.0627,1209.4523,898.646,1213.619,909.0627,1217.7856,904.896,1213.619" style="stroke:#2FA4E7;stroke-width:1.0417;"/><text fill="#343A40" font-family="'Verdana'" font-size="12.5" lengthAdjust="spacing" textLength="162.0239" x="910.1044" y="1174.9695">hermetic sandboxed build</text><text fill="#343A40" font-family="'Verdana'" font-size="12.5" lengthAdjust="spacing" textLength="157.1045" x="910.1044" y="1190.1611">(namespaces + cgroups)</text></g><g class="message" data-participant-1="Exec" data-participant-2="Store"><polygon fill="#2FA4E7" points="1132.6548,1249.644,1143.0715,1253.8106,1132.6548,1257.9773,1136.8215,1253.8106" style="stroke:#2FA4E7;stroke-width:1.0417;"/><line style="stroke:#2FA4E7;stroke-width:3.125;" x1="897.6044" x2="1138.9048" y1="1253.8106" y2="1253.8106"/><text fill="#343A40" font-family="'Verdana'" font-size="12.5" lengthAdjust="spacing" textLength="212.1338" x="910.1044" y="1243.8944">write chunks with dedup-on-write</text></g><g class="message" data-participant-1="Store" data-participant-2="Store"><line style="stroke:#2FA4E7;stroke-width:3.125;" x1="1145.1548" x2="1188.9048" y1="1309.1939" y2="1309.1939"/><line style="stroke:#2FA4E7;stroke-width:3.125;" x1="1188.9048" x2="1188.9048" y1="1309.1939" y2="1322.7356"/><line style="stroke:#2FA4E7;stroke-width:3.125;" x1="1146.1965" x2="1188.9048" y1="1322.7356" y2="1322.7356"/><polygon fill="#2FA4E7" points="1156.6132,1318.5689,1146.1965,1322.7356,1156.6132,1326.9023,1152.4465,1322.7356" style="stroke:#2FA4E7;stroke-width:1.0417;"/><text fill="#343A40" font-family="'Verdana'" font-size="12.5" lengthAdjust="spacing" textLength="144.8792" x="1157.6548" y="1284.0861">chunk-level addressing</text><text fill="#343A40" font-family="'Verdana'" font-size="12.5" lengthAdjust="spacing" textLength="143.7805" x="1157.6548" y="1299.2778">(hybrid fixed + rolling)</text></g><g class="message" data-participant-1="Store" data-participant-2="Exec"><polygon fill="#2FA4E7" points="909.0627,1358.7606,898.646,1362.9272,909.0627,1367.0939,904.896,1362.9272" style="stroke:#2FA4E7;stroke-width:1.0417;"/><line style="stroke:#2FA4E7;stroke-width:3.125;stroke-dasharray:2.0833,2.0833;" x1="902.8127" x2="1144.1132" y1="1362.9272" y2="1362.9272"/><text fill="#343A40" font-family="'Verdana'" font-size="12.5" lengthAdjust="spacing" textLength="92.0349" x="920.521" y="1353.0111">build complete</text></g><rect fill="url(#g17c24sp6lyrmr1)" height="3.125" rx="4.1667" ry="4.1667" style="stroke:url(#g17c24sp6lyrmr1);stroke-width:1.0417;" width="1774.3195" x="10.4167" y="1404.8981"/><line style="stroke:#868E96;stroke-width:1.0417;" x1="10.4167" x2="1784.7361" y1="1404.8981" y2="1404.8981"/><line style="stroke:#868E96;stroke-width:1.0417;" x1="10.4167" x2="1784.7361" y1="1408.0231" y2="1408.0231"/><rect fill="url(#g17c24sp6lyrmr1)" height="33.9417" rx="4.1667" ry="4.1667" style="stroke:#868E96;stroke-width:2.0833;" width="224.115" x="785.5189" y="1388.9689"/><text fill="#343A40" font-family="'Verdana'" font-size="12.5" font-weight="bold" lengthAdjust="spacing" textLength="194.8425" x="796.9772" y="1410.9111">Mutable Environment Setup</text><g class="message" data-participant-1="Exec" data-participant-2="Mutable"><polygon fill="#2FA4E7" points="1384.2112,1476.2105,1394.6279,1480.3772,1384.2112,1484.5439,1388.3779,1480.3772" style="stroke:#2FA4E7;stroke-width:1.0417;"/><line style="stroke:#2FA4E7;stroke-width:3.125;" x1="897.6044" x2="1390.4612" y1="1480.3772" y2="1480.3772"/><text fill="#343A40" font-family="'Verdana'" font-size="12.5" lengthAdjust="spacing" textLength="176.2756" x="910.1044" y="1455.2694">configure mutable work dirs</text><text fill="#343A40" font-family="'Verdana'" font-size="12.5" lengthAdjust="spacing" textLength="154.0405" x="910.1044" y="1470.461">(e.g., Java security dirs)</text></g><g class="message" data-participant-1="Mutable" data-participant-2="Mutable"><line style="stroke:#2FA4E7;stroke-width:3.125;" x1="1396.7112" x2="1440.4612" y1="1520.5688" y2="1520.5688"/><line style="stroke:#2FA4E7;stroke-width:3.125;" x1="1440.4612" x2="1440.4612" y1="1520.5688" y2="1534.1105"/><line style="stroke:#2FA4E7;stroke-width:3.125;" x1="1397.7529" x2="1440.4612" y1="1534.1105" y2="1534.1105"/><polygon fill="#2FA4E7" points="1408.1696,1529.9438,1397.7529,1534.1105,1408.1696,1538.2772,1404.0029,1534.1105" style="stroke:#2FA4E7;stroke-width:1.0417;"/><text fill="#343A40" font-family="'Verdana'" font-size="12.5" lengthAdjust="spacing" textLength="137.5732" x="1409.2112" y="1510.6527">setup overlays or VFS</text></g><g class="message" data-participant-1="Mutable" data-participant-2="Store"><polygon fill="#2FA4E7" points="1156.6132,1570.1355,1146.1965,1574.3022,1156.6132,1578.4688,1152.4465,1574.3022" style="stroke:#2FA4E7;stroke-width:1.0417;"/><line style="stroke:#2FA4E7;stroke-width:3.125;" x1="1150.3632" x2="1395.6696" y1="1574.3022" y2="1574.3022"/><text fill="#343A40" font-family="'Verdana'" font-size="12.5" lengthAdjust="spacing" textLength="191.5833" x="1168.0715" y="1564.386">link immutable + mutable refs</text></g><rect fill="url(#g17c24sp6lyrmr1)" height="3.125" rx="4.1667" ry="4.1667" style="stroke:url(#g17c24sp6lyrmr1);stroke-width:1.0417;" width="1774.3195" x="10.4167" y="1608.9813"/><line style="stroke:#868E96;stroke-width:1.0417;" x1="10.4167" x2="1784.7361" y1="1608.9813" y2="1608.9813"/><line style="stroke:#868E96;stroke-width:1.0417;" x1="10.4167" x2="1784.7361" y1="1612.1063" y2="1612.1063"/><rect fill="url(#g17c24sp6lyrmr1)" height="33.9417" rx="4.1667" ry="4.1667" style="stroke:#868E96;stroke-width:2.0833;" width="100.2258" x="847.4635" y="1593.0522"/><text fill="#343A40" font-family="'Verdana'" font-size="12.5" font-weight="bold" lengthAdjust="spacing" textLength="70.9534" x="858.9218" y="1614.9943">Activation</text><g class="message" data-participant-1="Store" data-participant-2="Activate"><polygon fill="#2FA4E7" points="1633.9915,1665.1021,1644.4082,1669.2688,1633.9915,1673.4355,1638.1582,1669.2688" style="stroke:#2FA4E7;stroke-width:1.0417;"/><line style="stroke:#2FA4E7;stroke-width:3.125;" x1="1145.1548" x2="1640.2415" y1="1669.2688" y2="1669.2688"/><text fill="#343A40" font-family="'Verdana'" font-size="12.5" lengthAdjust="spacing" textLength="177.2461" x="1157.6548" y="1659.3526">finalized paths + generation</text></g><g class="message" data-participant-1="Activate" data-participant-2="Activate"><line style="stroke:#2FA4E7;stroke-width:3.125;" x1="1646.4915" x2="1690.2415" y1="1724.6521" y2="1724.6521"/><line style="stroke:#2FA4E7;stroke-width:3.125;" x1="1690.2415" x2="1690.2415" y1="1724.6521" y2="1738.1938"/><line style="stroke:#2FA4E7;stroke-width:3.125;" x1="1647.5332" x2="1690.2415" y1="1738.1938" y2="1738.1938"/><polygon fill="#2FA4E7" points="1657.9498,1734.0271,1647.5332,1738.1938,1657.9498,1742.3604,1653.7832,1738.1938" style="stroke:#2FA4E7;stroke-width:1.0417;"/><text fill="#343A40" font-family="'Verdana'" font-size="12.5" lengthAdjust="spacing" textLength="102.5085" x="1658.9915" y="1699.5443">update symlinks</text><text fill="#343A40" font-family="'Verdana'" font-size="12.5" lengthAdjust="spacing" textLength="97.3877" x="1658.9915" y="1714.7359">(atomic switch)</text></g><g class="message" data-participant-1="Activate" data-participant-2="CLI"><polygon fill="#2FA4E7" points="219.2159,1774.2188,208.7992,1778.3854,219.2159,1782.5521,215.0492,1778.3854" style="stroke:#2FA4E7;stroke-width:1.0417;"/><line style="stroke:#2FA4E7;stroke-width:3.125;" x1="212.9659" x2="1645.4498" y1="1778.3854" y2="1778.3854"/><text fill="#343A40" font-family="'Verdana'" font-size="12.5" lengthAdjust="spacing" textLength="113.446" x="230.6742" y="1768.4692">activation success</text></g><g class="message" data-participant-1="CLI" data-participant-2="User"><polygon fill="#2FA4E7" points="49.6379,1814.4104,39.2212,1818.5771,49.6379,1822.7437,45.4712,1818.5771" style="stroke:#2FA4E7;stroke-width:1.0417;"/><line style="stroke:#2FA4E7;stroke-width:3.125;" x1="43.3879" x2="206.7159" y1="1818.5771" y2="1818.5771"/><text fill="#343A40" font-family="'Verdana'" font-size="12.5" lengthAdjust="spacing" textLength="134.1614" x="61.0962" y="1808.6609">packageA installed &#10003;</text></g><path d="M776.0417,1836.2854 L776.0417,1923.7854 A4.1667,4.1667 0 0 0 780.2083,1927.9521 L1013.5417,1927.9521 A4.1667,4.1667 0 0 0 1017.7083,1923.7854 L1017.7083,1842.5354 L1007.2917,1832.1187 L780.2083,1832.1187 A4.1667,4.1667 0 0 0 776.0417,1836.2854" fill="url(#g17c24sp6lyrmr2)" style="stroke:#033C73;stroke-width:1.0417;"/><path d="M1007.2917,1832.1187 L1007.2917,1840.4521 A2.0833,2.0833 0 0 0 1009.375,1842.5354 L1017.7083,1842.5354 L1007.2917,1832.1187" fill="url(#g17c24sp6lyrmr2)" style="stroke:#033C73;stroke-width:1.0417;"/><text fill="#FFFFFF" font-family="'Verdana'" font-size="12.5" font-weight="bold" lengthAdjust="spacing" textLength="125.8789" x="787.5" y="1855.1025">Execution Engine:</text><text fill="#FFFFFF" font-family="'Verdana'" font-size="12.5" lengthAdjust="spacing" textLength="165.0818" x="787.5" y="1870.2942">&#8226; Chase-Lev work stealing</text><text fill="#FFFFFF" font-family="'Verdana'" font-size="12.5" lengthAdjust="spacing" textLength="209.5825" x="787.5" y="1885.4858">&#8226; Lock-free dependency traversal</text><text fill="#FFFFFF" font-family="'Verdana'" font-size="12.5" lengthAdjust="spacing" textLength="159.3811" x="787.5" y="1900.6775">&#8226; Hermetic parallel builds</text><text fill="#FFFFFF" font-family="'Verdana'" font-size="12.5" lengthAdjust="spacing" textLength="152.1606" x="787.5" y="1915.8691">&#8226; Deduplication on write</text><path d="M1047.9167,1943.4937 L1047.9167,2046.6187 A4.1667,4.1667 0 0 0 1052.0833,2050.7853 L1236.4583,2050.7853 A4.1667,4.1667 0 0 0 1240.625,2046.6187 L1240.625,1949.7437 L1230.2083,1939.327 L1052.0833,1939.327 A4.1667,4.1667 0 0 0 1047.9167,1943.4937" fill="url(#g17c24sp6lyrmr2)" style="stroke:#033C73;stroke-width:1.0417;"/><path d="M1230.2083,1939.327 L1230.2083,1947.6603 A2.0833,2.0833 0 0 0 1232.2917,1949.7437 L1240.625,1949.7437 L1230.2083,1939.327" fill="url(#g17c24sp6lyrmr2)" style="stroke:#033C73;stroke-width:1.0417;"/><text fill="#FFFFFF" font-family="'Verdana'" font-size="12.5" font-weight="bold" lengthAdjust="spacing" textLength="102.0996" x="1059.375" y="1962.3108">Content Store:</text><text fill="#FFFFFF" font-family="'Verdana'" font-size="12.5" lengthAdjust="spacing" textLength="160.8459" x="1059.375" y="1977.5024">&#8226; Chunked CAS (BLAKE3)</text><text fill="#FFFFFF" font-family="'Verdana'" font-size="12.5" lengthAdjust="spacing" textLength="146.2708" x="1059.375" y="1992.6941">&#8226; Merkle DAG structure</text><text fill="#FFFFFF" font-family="'Verdana'" font-size="12.5" lengthAdjust="spacing" textLength="156.8298" x="1059.375" y="2007.8857">&#8226; Bloom filter pre-checks</text><text fill="#FFFFFF" font-family="'Verdana'" font-size="12.5" lengthAdjust="spacing" textLength="144.7632" x="1059.375" y="2023.0774">&#8226; ROAR bitmap for refs</text><text fill="#FFFFFF" font-family="'Verdana'" font-size="12.5" lengthAdjust="spacing" textLength="151.3184" x="1059.375" y="2038.269">&#8226; Zstd/LZ4 compression</text><path d="M1305.2083,2065.8936 L1305.2083,2138.8102 A4.1667,4.1667 0 0 0 1309.375,2142.9769 L1483.3333,2142.9769 A4.1667,4.1667 0 0 0 1487.5,2138.8102 L1487.5,2072.1436 L1477.0833,2061.7269 L1309.375,2061.7269 A4.1667,4.1667 0 0 0 1305.2083,2065.8936" fill="url(#g17c24sp6lyrmr2)" style="stroke:#033C73;stroke-width:1.0417;"/><path d="M1477.0833,2061.7269 L1477.0833,2070.0602 A2.0833,2.0833 0 0 0 1479.1667,2072.1436 L1487.5,2072.1436 L1477.0833,2061.7269" fill="url(#g17c24sp6lyrmr2)" style="stroke:#033C73;stroke-width:1.0417;"/><text fill="#FFFFFF" font-family="'Verdana'" font-size="12.5" font-weight="bold" lengthAdjust="spacing" textLength="126.1169" x="1316.6667" y="2084.7107">Mutable Manager:</text><text fill="#FFFFFF" font-family="'Verdana'" font-size="12.5" lengthAdjust="spacing" textLength="150.1892" x="1316.6667" y="2099.9023">&#8226; Overlays for work dirs</text><text fill="#FFFFFF" font-family="'Verdana'" font-size="12.5" lengthAdjust="spacing" textLength="146.6553" x="1316.6667" y="2115.094">&#8226; VFS for specific paths</text><text fill="#FFFFFF" font-family="'Verdana'" font-size="12.5" lengthAdjust="spacing" textLength="118.396" x="1316.6667" y="2130.2856">&#8226; No nix-ld needed</text><!--SRC=[TLNBSkCs4BppAoPxI6mvMc-LStALKoM_raxajSlovh2L2qIEH9H0W050oTfJ_Y7NdF9f-oLf0AH4AevA1mdpm4ntp-0xNtB5bBDj50kT_K1k9NKjhAYeg2MTVVYGxK_SUdajAzPE6ZtpMyMq4CfnpsCkyjNIcaONLqOPIvjIUiwyzF3znA_IFSxe2JvYoNIldHTAqPZkvB8SJtdDYcwLsMIPo3s2Fpks6V9wcSjQQ4_lhgRtT4gJf_lVzT6jDTgpBexVaN04oz3rvV5XYgiiSi3vokY5NDBKY89jYaYsOT0rMxaM7ktHCpkZrZ7uUlAHBXkfTg6TRHXyyyfv4sDlz59gHcICebbUSW5ys-ZWTz1MxCJJ35s7iAl9Z4xeWUqAiE7s51Ujmy27neivV6xqcXw41ggXtaUKfiJMdVvsEqkXhTymU9Bxhjbzx4VMRDFXR2DzNgO4hIzdsSL5v0KO_D6mytHnaSN_uvy31tHEigMrJZHFid0CQy8R3WeaKAGdZwp4d8V89o2Hl0r3WWvrfAZ3OT760wg2QoY1TIxPPJk_OSmySb6pTT95j07i__dcfgeRpyYxgweKhcH7HvVJoQytPyUnw3kSGLDcrTJqFLeecbh9N7IbzvD7yf0PeDdjOTuiMNjkSsLCHGkfFC9hosD8A5zbGdcw4lYDaV4PuTD63illfGypvrrqxPVJyGddnd7oade9O7sPCMQwlUP1kly61m4ZqBMoJiYU5cQZ0xKPc8ZeW3de03Ez7mo00kheKce15AxR23gI2n9h8LKGwN6yBzxH0sJ1q2AjfQ2xbvUdqpCo8Or_CTQ2opuK-nYKAnTRIen5e26Ll6pqoXrWrtRKjH3vLmovnrv2oJFJs9pJ6eZrQkQ2Ys6nRPgIRSMOCt925tFp2gL6Y31UMbJiC1bG4ae9cx9sRpUyiTYSRRM4IIp1AlGrDdeSJM-t7Ft7AgvIKHIMdGEjkBZSpgqieAXGpGbPenGCns_Za4Pb2088xMqRYULRnPN57k87hrtzdTDvEvqDKbVjsSRO5HNIEXJ4xvVlVwHVG3ivo0CjRQFfEEio39AvU8zfDrjW7ykjxzeXWBPM9AlkofFTvPONBhRHstkeUmTXRoGMqAUINu5Kc8T0rNAt5hETty4OrKNuuRPLg21qABofWWZI6Xt4fKqfzeMu9eScNBShFxjspQKLskrK5FJjxx-oJ1ka2LYajsGqEdnwpaUZxDkV_z0LHC_XPKtGO- -9G7kqJKs-6YyiytvxRibRWRHEgEXormcvxaOvAiD5ut3TuPjaYKmKwkjNcLwkqMZmpkrhX6JHMNZqTjir6FRl7mgtJUuXfMYuV7CvfggU7oVFD9U-4ZKje9B8UZ1ySRuudNxvASewpWMuVAlOxgqSZJfrjQzZLt3tlCRyEqb74pGPJrtDkLn4uA2VQFfaIClNCUOgROxTtVy2]--></g></svg>